<?xml version="1.0" encoding="UTF-8"?> <svg xmlns="http://www.w3.org/2000/svg" width="559" height="745" viewBox="0 0 559 745" fill="none"> <g clip-path="url(#clip0)"> <path fill-rule="evenodd" clip-rule="evenodd" d="M333.61 103.28C333.61 103.28 332.68 103.72 332.3 103.92C331.698 104.214 331.015 104.299 330.36 104.16C329.073 103.527 327.663 103.186 326.23 103.16C323.91 103.16 320.58 104.76 320.62 108.45C320.556 110.138 320.762 111.826 321.23 113.45C321.36 114.18 321.45 114.51 321.45 114.51C321.45 114.51 314.22 115.88 314.59 122.39C314.87 127.19 316.17 127.39 316.96 127.68C316.96 127.68 318.21 127.58 318.49 127.92C318.887 128.752 319.076 129.669 319.04 130.59C318.95 131.27 318.81 132.24 317.98 132.34C316.262 132.479 314.551 131.996 313.16 130.98C310.75 129.47 309.08 127.53 308.94 125.44C308.8 123.35 308.94 122.72 309.4 121.9C309.86 121.08 310.51 120.59 311.02 119.62C311.238 119.274 311.369 118.881 311.402 118.473C311.436 118.066 311.369 117.656 311.21 117.28C311.028 116.989 310.931 116.653 310.931 116.31C310.931 115.967 311.028 115.631 311.21 115.34C311.68 114.81 313.81 113.11 314.21 111.34C314.697 109.821 314.87 108.218 314.72 106.63C314.48 104.83 312.54 97.36 306.79 97.36C301.04 97.36 299 102.94 298.92 106C298.84 109.06 299.38 109.89 299.62 112.07C299.86 114.25 298.62 115.13 298.62 116.59C298.62 118.05 299.13 120.23 299.03 121.83C298.93 123.43 299.22 127.17 294.49 127.17C289.76 127.17 286.61 125.38 286.49 122.17C286.37 118.96 287.32 118.82 288.2 118.87C289.08 118.92 290.38 120.18 290.89 121.54C291.4 122.9 291.89 122.88 292.42 122.85C292.95 122.82 294.42 122.17 295.34 118.77C296.26 115.37 296.73 113.92 296.6 111.68C296.47 109.44 294 101.15 292.2 101.15C290.4 101.15 290.71 104.15 288.49 104.15C288.145 104.149 287.804 104.078 287.487 103.942C287.17 103.806 286.884 103.607 286.646 103.358C286.408 103.109 286.222 102.814 286.101 102.491C285.98 102.168 285.925 101.824 285.94 101.48C286.03 97.89 291.27 95.94 291.27 94.29C291.27 92.64 290.27 90.29 288.21 90.12C286.15 89.95 285.71 90.55 285.71 90.55C285.177 89.5514 284.433 88.6811 283.53 88C282.14 87 280.7 85.81 279.45 85.81H279.17C277.92 85.81 276.48 87.03 275.09 88C274.189 88.6725 273.445 89.5322 272.91 90.52C272.91 90.52 272.45 89.94 270.41 90.09C268.37 90.24 267.35 92.61 267.35 94.26C267.35 95.91 272.59 97.86 272.68 101.45C272.693 101.794 272.637 102.137 272.515 102.46C272.393 102.782 272.208 103.076 271.97 103.325C271.732 103.574 271.447 103.773 271.131 103.909C270.814 104.046 270.474 104.118 270.13 104.12C267.9 104.12 268.18 101.12 266.42 101.12C264.66 101.12 262.15 109.37 262.02 111.6C261.89 113.83 262.39 115.3 263.27 118.69C264.15 122.08 265.68 122.75 266.19 122.77C266.7 122.79 267.19 122.77 267.72 121.46C268.25 120.15 269.53 118.84 270.41 118.79C271.29 118.74 272.22 118.89 272.12 122.09C272.02 125.29 268.88 127.09 264.12 127.09C259.36 127.09 259.67 123.35 259.57 121.75C259.47 120.15 259.99 117.97 259.99 116.51C259.99 115.05 258.74 114.18 258.99 111.99C259.24 109.8 259.73 108.93 259.69 105.92C259.65 102.91 257.6 97.38 251.85 97.38C246.1 97.38 244.16 104.85 243.92 106.65C243.769 108.238 243.942 109.841 244.43 111.36C244.85 113.11 246.98 114.81 247.43 115.36C247.604 115.656 247.692 115.994 247.683 116.337C247.674 116.68 247.569 117.014 247.38 117.3C247.22 117.676 247.154 118.086 247.187 118.493C247.22 118.901 247.351 119.294 247.57 119.64C248.08 120.64 248.73 121.09 249.19 121.92C249.65 122.75 249.79 123.37 249.65 125.46C249.51 127.55 247.85 129.46 245.43 131C244.038 132.017 242.327 132.5 240.61 132.36C239.78 132.26 239.61 131.29 239.54 130.61C239.511 129.688 239.703 128.773 240.1 127.94C240.38 127.6 241.63 127.7 241.63 127.7C242.42 127.45 243.72 127.21 244 122.41C244.37 115.9 237.14 114.53 237.14 114.53C237.14 114.53 237.23 114.2 237.37 113.47C237.83 111.845 238.033 110.158 237.97 108.47C237.97 104.78 234.68 103.13 232.36 103.18C230.925 103.201 229.514 103.542 228.23 104.18C227.571 104.321 226.884 104.237 226.28 103.94C225.91 103.74 224.99 103.3 224.99 103.3C220.54 102.72 220.53 104.67 220.4 105.2C220.388 105.515 220.488 105.824 220.682 106.073C220.876 106.322 221.151 106.494 221.46 106.56C222.63 106.767 223.745 107.209 224.74 107.86C225.53 108.5 225.25 115.51 225.25 117.95C225.25 120.39 225.51 126.33 225.59 126.87C226.575 129.005 228.016 130.899 229.81 132.42C232.39 134.72 237.53 136.75 238.07 137.3C238.61 137.85 238.59 139.85 238.59 139.85L238.66 157.85L236.88 158.85L237.36 159H236.94C232.66 161.34 227.94 166.79 221.05 170C216.505 172.31 211.811 174.314 207 176C202.997 177.551 198.845 178.684 194.61 179.38C188 180.56 184.61 181.48 181.22 181.38C177.83 181.28 176.22 180.47 176.36 179.38C176.5 178.29 180.36 176.38 183.15 173.97C185.94 171.56 188.92 167.72 189.35 166.48C190.35 163.54 187.72 164.09 186.99 166.48C186.62 167.71 186.38 167.93 185.2 167.93C184.02 167.93 182.95 165.22 181.03 165.06C179.11 164.9 174.31 165.52 174.49 166.82C174.67 168.12 178.66 168.64 178.49 169.62C178.32 170.6 175.49 173.73 173.63 173.41C171.77 173.09 170.83 169.41 170.71 167.41C170.59 165.41 173.63 160.1 176.62 159.26C179.61 158.42 180.42 158.08 181.17 158.67C181.92 159.26 181.85 161.54 184.84 161.99C184.84 161.99 184.84 161.92 186.04 162.51C187.24 163.1 188.27 164.02 188.39 163.56C188.51 163.1 188.06 160.26 186.45 159.56C184.999 158.907 183.754 157.869 182.85 156.56C182.1 155.45 179.68 149.95 177.59 148.92C175.5 147.89 173.26 147.92 169.09 146.84C164.92 145.76 159.25 143.65 155.57 143.58C151.89 143.51 145.84 147.58 142.95 148.5C140.06 149.42 137.77 149.71 134.5 150.88C131.23 152.05 131.5 155.88 127.12 158.19C123.99 159.8 125.37 160.19 124.01 160.86C122.65 161.53 119.4 161.64 119.01 164.12C118.62 166.6 117.89 169.6 118.14 171.55C118.393 173.322 118.433 175.118 118.26 176.9C118.08 178.07 117.02 178.01 117.33 181.08C117.64 184.15 118.82 187.59 122.75 189.68C126.68 191.77 130.65 192.42 132.75 195.23C134.85 198.04 136.91 200.59 137.94 203.32C138.97 206.05 139.35 206.83 139.29 211.79C139.23 216.75 138.85 226.85 138.23 231.09C137.61 235.33 136.36 244.53 135.36 250.2C134.36 255.87 131.01 268.26 129.76 272.96C128.51 277.66 128.27 286.66 127.27 290.11C126.27 293.56 124.14 297.7 124.92 299.24C124.28 301.11 127.61 302.5 131.92 304.31C134.43 306.04 141.68 310.85 143.85 314.18C147.51 319.8 148.78 317.58 152 320.76C153.233 322.341 153.892 324.295 153.87 326.3C154.087 329.827 154.671 333.323 155.61 336.73C158.29 345.88 159.39 348.34 160.94 347.33C162.7 346.42 159.48 339.33 158.67 337.91C157.86 336.49 157.33 336.34 157.21 333.73C157.09 331.12 158.21 329.63 158.54 327.14C158.87 324.65 156.61 322.38 156.61 321.08C156.61 319.78 157.86 320.75 158.48 321.21C159.1 321.67 163.65 324.99 166.14 325.84C168.63 326.69 169.29 327.44 169.61 328.48C169.93 329.52 168.75 332.2 170.5 337.28C172.25 342.36 170.72 345.39 171.5 348.28C171.5 351.15 167.35 354.12 167.38 354.89C165.96 354.89 163.09 351.22 160.29 351.42C157.49 351.62 157.18 353.42 157.49 354.42C157.8 355.42 161.31 355.25 161.13 356.23C160.95 357.21 159.13 358.34 159.77 359.45C160.41 360.56 162.77 359.11 163.67 359.24C164.57 359.37 163.5 361.6 162.56 362.85C161.62 364.1 160.77 365.39 162.02 365.66C163.27 365.93 164.41 364.31 165.41 364.66C166.41 365.01 166.02 365.97 164.96 368.12C163.9 370.27 160.96 373.27 160.46 377.7C159 384.06 165.59 395.38 166.25 394.07C164.89 388.45 164.93 386.07 165.71 379.07C167.1 366.6 172.89 351.32 178.81 343.38C179.75 340.3 181.4 334.83 181.21 332.19C180.88 327.71 176.13 322.33 173.52 321.75C169.6 320.87 165.52 320.75 163.77 320.22C162.02 319.69 156.61 318.33 156.77 317.15C156.93 315.97 177.42 309.47 178.34 306.97C179.26 304.47 177.74 295.16 176.28 288.49C175.53 281.49 174.8 271.77 173.68 260.13C172.56 248.49 172.07 228.89 171.6 222.92C171.13 216.95 169.04 201.2 171.33 199.5C174.42 196.21 189.83 202.37 192.33 203.56C192.75 203.77 187.02 210.16 187.42 208.94C187.83 209.72 374.77 210.25 374.69 209.17C374.69 209.17 373.42 206.1 370.89 205.24C368.36 204.38 369.01 204.66 370.6 204.24C372.19 203.82 388.86 196.91 388.81 200.33C390.12 200.82 389.81 202.33 389.75 203.95C389.69 205.57 389.46 223.41 388.63 230.95C387.8 238.49 387.5 255.5 386.76 263.03C386.02 270.56 385.17 285.03 384.89 290.52C384.61 296.01 382.89 300.88 389 306.52C395.11 312.16 404.06 314.12 403.77 315.8C403.48 317.48 398.06 319.43 393.95 320.02C386.59 317.53 377.28 324.63 379.28 337.66C379.06 338.2 378.75 348.24 384.07 358.02C386.74 360.21 391.75 367.02 394.07 377.17C395.13 381.77 394.6 387.04 394.58 393.46C395.1 393.67 398.64 383.68 398.58 379.26C399.9 370.18 390.47 364.83 389.9 363.64C390.74 361.98 394.71 365.89 395.27 364.82C395.83 363.75 391.86 359.24 392.47 358.51C393.08 357.78 395.93 359.92 396.63 359.24C397.33 358.56 394.95 356.5 395.97 355.33C396.99 354.16 400.18 354.45 399.29 352.39C398.4 350.33 397.86 350.24 396.91 350.24C391.91 350.24 387.97 359.61 386.8 358.49C385.63 357.37 385.7 357.05 385.6 354.65C385.5 352.25 385.14 339.16 385.42 338.13C385.7 337.1 389.93 334.7 390.23 333.95C390.18 331.07 388.15 326.77 388.73 326.16C389.31 325.55 395.73 325.01 397.73 323.34C399.73 321.67 401.89 319.53 402.63 319.53C403.37 319.53 403.76 319.09 403.76 319.87C403.76 320.65 401.19 324.22 401.51 325.45C401.83 326.68 404.88 330.04 404.64 331.75C404.4 333.46 402.4 335.18 401.05 338.55C399.2 342.01 398.5 344.46 399.97 345.87C399.86 345.87 402.51 348.39 404.27 339.33C405.611 336.226 406.308 332.882 406.32 329.5C406.51 325.4 406.18 322.27 406.6 320.75C407.02 319.23 408.29 320.13 408.87 320.15C409.45 320.17 409.78 318.75 410.62 318.45C410.62 318.45 414.62 317.06 416.04 313.99C416.872 312.522 417.999 311.242 419.35 310.23C422.11 307.94 426.13 303.97 428.46 302.75C430.79 301.53 435 300.89 435.05 299.09C435.1 297.29 433.69 289.74 432.9 284.26C432.11 278.78 430.79 273.55 429.9 269.05C429.01 264.55 426.4 256.19 425.46 250.67C424.52 245.15 423.63 242.19 423 235C422.37 227.81 421.27 216.27 421.09 211.62C420.91 206.97 420.81 206.29 421.51 204.24C422.21 202.19 424.92 197.09 428.05 194.45C431.147 191.824 434.667 189.741 438.46 188.29C442.1 186.92 442.57 186.14 442.85 182.86C443.13 179.58 442.99 177.09 442.34 175.62C441.69 174.15 442.19 169.27 442.29 167.85C442.39 166.43 441.68 162.62 439.35 161.3C437.02 159.98 436.78 160.76 436.03 160.3C434.81 159.387 433.685 158.355 432.67 157.22C430.556 154.676 428.26 152.29 425.8 150.08C423.56 148.32 421.8 148.9 419.64 148.56C417.48 148.22 413.24 145.87 411.7 145.14C409.293 144.129 406.734 143.531 404.13 143.37C402.014 143.29 399.899 143.557 397.87 144.16C395.31 144.89 391.66 146.02 389.05 146.6C386.44 147.18 384.43 147.29 382.65 148.46C380.87 149.63 378.82 153.89 378.12 155.16C377.42 156.43 378.31 156.78 375.64 157.8C372.97 158.82 373.35 160.51 372.81 161.13C372.27 161.75 371.57 162.45 372.81 162.65C373.599 162.713 374.392 162.605 375.135 162.334C375.879 162.063 376.556 161.635 377.12 161.08C378.24 159.91 379.55 157.95 381.65 157.9C382.559 157.891 383.457 158.099 384.27 158.508C385.082 158.917 385.785 159.514 386.32 160.25C387.58 161.67 388.94 162.55 389.26 164.7C389.58 166.85 390.06 167.7 389.64 168.81C389.22 169.92 388.98 172.04 388.09 172.28C387.2 172.52 381.88 170.18 382.09 169.34C382.3 168.5 386.34 167.98 386.2 166.56C386.06 165.14 384.42 164.5 380.82 164.56C377.22 164.62 376.76 166.76 375.55 167.35C374.34 167.94 373.26 165.88 372.47 164.86C371.68 163.84 371.87 163.14 371.27 163.48C370.67 163.82 370.91 165.95 372.76 168.31C374.61 170.67 383.42 177 383.37 178C383.32 179 380.99 179.76 376.74 179.71C372.49 179.66 368.01 179.91 362.49 178.2C356.97 176.49 350.4 174.62 347.55 173.7C344.7 172.78 333.2 167.7 331.44 166.85C327.614 164.771 324.024 162.287 320.73 159.44L321.26 159.32H320.62C320.29 159.05 319.99 158.79 319.73 158.56L319.92 158.5L320 139.78C320 139.78 320 137.78 320.52 137.23C321.04 136.68 326.2 134.65 328.78 132.35C330.577 130.833 332.018 128.938 333 126.8C333.09 126.26 333.34 120.31 333.34 117.88C333.34 115.45 333.06 108.43 333.85 107.79C334.843 107.138 335.959 106.695 337.13 106.49C337.439 106.426 337.716 106.254 337.91 106.005C338.104 105.756 338.203 105.446 338.19 105.13C338.06 104.6 338.06 102.65 333.61 103.23V103.28ZM313.34 138.2C310.28 138.2 301.8 133.34 279.34 133.58C256.85 133.34 248.34 138.2 245.34 138.2C242.34 138.2 241.54 136.3 241.76 135.75C241.98 135.2 242.76 135.96 243.86 136.11C244.96 136.26 246.96 134.75 249.42 132.27C251.88 129.79 252.42 126.27 252.42 123.73C252.42 121.19 251.21 120.38 250.93 120.18C250.65 119.98 250.88 118.04 251.4 118.09C251.92 118.14 252.69 119.7 253.2 120.42C253.71 121.14 254.55 122.85 254.27 126.01C253.99 129.17 251.95 132.37 251.63 133.01C251.31 133.65 251.81 134.07 252.42 134.22C253.03 134.37 254.22 133.06 254.5 132.47C254.78 131.88 254.83 130 256 130C257.17 130 260.46 133.54 261.06 133.54C261.314 133.548 261.565 133.479 261.779 133.341C261.993 133.204 262.161 133.005 262.26 132.77C262.387 132.574 262.455 132.344 262.455 132.11C262.455 131.876 262.387 131.646 262.26 131.45C261.94 130.92 259.11 129.76 257.79 128.03C256.47 126.3 256.61 122.86 256.52 122.42C256.43 121.98 254.89 122.23 254.89 121.6C254.89 120.97 255.54 120.72 255.89 120.36C256.24 120 256.38 116.84 256.99 116.89C257.6 116.94 257.77 119.02 257.77 122.18C257.77 125.34 260.6 129.61 266.35 129.41C272.1 129.21 275.11 123.1 275.2 120.24C275.161 119 274.692 117.813 273.873 116.882C273.053 115.951 271.934 115.335 270.71 115.14C269.04 115.14 267.23 117.71 266.81 117.96C266.39 118.21 265.98 117.71 265.47 117.32C264.96 116.93 265.61 109.32 265.61 108.58C265.61 107.84 265.61 107.23 266.67 107.03C267.73 106.83 270.48 109.7 271.26 109.7C272.04 109.7 272.84 108.49 273.26 106.5C273.68 104.51 276.26 101.98 277.03 101.5C277.692 101.139 278.435 100.95 279.19 100.95C279.944 100.95 280.687 101.139 281.35 101.5C282.16 101.96 284.66 104.5 285.12 106.5C285.58 108.5 286.38 109.7 287.12 109.7C287.86 109.7 290.69 106.84 291.71 107.03C292.73 107.22 292.78 107.86 292.78 108.58C292.78 109.3 293.43 116.94 292.92 117.32C292.41 117.7 291.99 118.2 291.58 117.96C291.17 117.72 289.35 115.14 287.68 115.14C286.454 115.336 285.336 115.953 284.515 116.883C283.694 117.813 283.222 119 283.18 120.24C283.27 123.1 286.29 129.24 292.04 129.41C297.79 129.58 300.62 125.34 300.62 122.18C300.62 119.02 300.8 116.94 301.41 116.89C302.02 116.84 302.12 120 302.5 120.36C302.88 120.72 303.5 120.97 303.5 121.6C303.5 122.23 301.97 121.99 301.88 122.42C301.79 122.85 301.88 126.31 300.59 128.03C299.3 129.75 296.45 130.92 296.13 131.45C296.002 131.646 295.934 131.876 295.934 132.11C295.934 132.344 296.002 132.574 296.13 132.77C296.228 133.005 296.396 133.204 296.61 133.341C296.824 133.479 297.075 133.548 297.33 133.54C297.93 133.54 301.18 130 302.38 130C303.58 130 303.73 131.89 304.01 132.47C304.29 133.05 305.49 134.37 306.09 134.22C306.69 134.07 307.21 133.69 306.88 133.01C306.55 132.33 304.52 129.12 304.24 126.01C303.96 122.9 304.8 121.15 305.31 120.42C305.82 119.69 306.6 118.14 307.11 118.09C307.62 118.04 307.86 119.99 307.58 120.18C307.3 120.37 306.09 121.18 306.09 123.73C306.09 126.28 306.6 129.8 309.09 132.27C311.58 134.74 313.54 136.27 314.65 136.11C315.76 135.95 316.53 135.21 316.75 135.75C316.97 136.29 316.23 138.2 313.17 138.2H313.34ZM105 392.68C100.63 384.16 101.82 371.34 100.86 372.43C97.3196 376.43 95.2196 372.56 93.5996 369.29C92.8596 367.82 92.1496 366.29 91.4596 364.62C95.4596 347.82 103.57 334.73 111.13 317.96C115.7 307.81 108.75 294.41 111.95 284.39C96.3496 293.06 86.4896 302.31 81.0396 311.89C81.1329 310.557 81.2729 309.347 81.4596 308.26C116 256.1 65.3396 271 94.4896 225.38C49.0996 250.9 59.4196 275.53 67.9996 296.63C69.3606 300.383 70.473 304.221 71.3296 308.12C70.1165 307.005 69.1286 305.667 68.4196 304.18C64.2596 294.51 49.9996 292 50.0796 305.61C65.5896 299.13 72.8796 317.42 75.6096 332.19C75.6964 337.43 76.6215 342.622 78.3496 347.57C83.4896 371 90.9996 388.64 91.9196 384.88C92.7696 385.88 91.1996 385.88 90.6896 385.67C83.2696 383.87 81.2596 371.45 79.9996 369C73.5496 356.81 78.7796 338 57.8096 330.1C53.3996 328.82 45.0596 314.51 45.6396 312.28C45.5796 313.55 40.4696 324.18 37.3196 330.45C28.3196 353.68 30.9796 367.15 67.2696 380.11C76.992 386.391 87.3908 391.557 98.2696 395.51C96.8796 395.51 68.2696 400.96 74.5996 390.8C74.9196 384.17 55.9896 381.4 57.0996 381.06C48.4396 413.9 94.5496 395.42 112.42 409.63C112.42 409.63 107.59 397.14 104.93 392.63L105 392.68ZM182.7 494.43C180.042 493.179 177.558 491.589 175.31 489.7C172.243 487.095 169.509 484.123 167.17 480.85C167.17 480.85 159.32 468.45 156.92 457.1C156.52 455.55 151.03 438.89 153.21 436.2C172.28 359.2 134.54 394.69 128.32 344.02C130.32 344.02 114.32 373.26 116.44 389.95V390.49C102.79 383.58 110.19 362.64 117.51 355.54C122.8 350.83 120.78 346.54 115.51 347.68C111.8 348.45 109.24 351.68 106.96 355.06C99.2096 366.54 101.44 390.61 113.8 394.69C114.89 395.3 115.89 395.96 116.8 396.53C114.46 412.95 132.63 436.86 147.18 456.53C149.82 460.19 151.63 465.04 150.69 465.16C149.75 465.28 147.42 458.89 145.16 456.41C142.9 453.93 136.46 447.41 133.74 444.35C118.59 423.47 113.94 409.35 100.95 406.71C86.3296 403.71 78.1696 408.17 56.7996 406.82C51.5496 406.49 49.9996 406.04 46.4696 405.64C60.9296 416 60.6496 417.47 70.5796 433.77C83.2496 454.58 98.3396 452.87 122.76 454.26C131.76 455.32 137.32 461.71 140.24 464.9C143.16 468.09 150.53 479.57 150.53 479.57C145.705 480.399 140.813 480.767 135.92 480.67C131.931 479.809 127.876 479.287 123.8 479.11C123.8 476.89 131.97 479.33 139.61 479.4C142.61 479.46 145.87 479.48 144.89 478.5C143.69 477.32 141.43 475.56 139.54 475.56C137.65 475.56 133.48 475.78 130.54 475.56C126.137 475.361 121.727 475.401 117.33 475.68C115.99 475.92 115.86 475.09 116.94 474.74C118.02 474.39 128.54 474.26 131.09 474.26C138.87 474.26 139.09 474.33 138.96 474.26C139.991 474.303 141.02 474.407 142.04 474.57C142.64 474.57 143.44 474.96 143.6 474.74C143.76 474.52 140.16 471.55 136.03 471.02C131.9 470.49 124.21 470.65 118.82 470.83C113.43 471.01 111.61 471.3 108.38 471.18C105.15 471.06 103.87 470.65 102.74 470.12C101.61 469.59 99.7396 468.96 99.9496 468.54C100.16 468.12 106.79 469.35 115.87 468.87C121.74 468.56 132.74 469.04 132.74 469.04C132.74 469.04 123 458.21 109.38 458.21C95.7596 458.21 83.4896 465.37 83.4696 467C83.4496 468.63 91.3396 486 105.17 486C119 486 122.46 483.18 133.45 483.18C144.44 483.18 155.91 489.61 160.63 490.94C165.07 493.11 177.27 496.44 180.3 496.44C183.33 496.44 183.45 494.61 182.7 494.44V494.43ZM433.72 188C430.94 188.28 425.72 187.16 425.72 186.13C425.72 185.1 431.87 182.59 432.54 181.13C433.21 179.67 433.81 178.06 432.8 177.96C431.79 177.86 428.45 179.82 425.8 179.64C423.15 179.46 420.64 176.06 419.8 175.84C419.8 175.84 419.94 176.19 418.25 176.56C416.56 176.93 412.95 177.56 411.34 176.75C409.73 175.94 407.8 172.83 407.22 171.81C406.958 171.196 406.647 170.604 406.29 170.04C405.53 168.92 405.99 165.13 405.99 165.13C405.99 165.13 403.08 169.82 401.4 169.28C400.885 169.059 400.433 168.715 400.084 168.277C399.735 167.839 399.5 167.321 399.4 166.77C399.311 166.944 399.188 167.098 399.037 167.222C398.886 167.346 398.711 167.437 398.523 167.489C398.335 167.542 398.138 167.555 397.944 167.528C397.751 167.5 397.566 167.433 397.4 167.33C396.05 166.59 394.49 164.08 393.08 162.44C391.67 160.8 390.36 158.6 389.33 158.02C388.3 157.44 384.85 157.22 384.33 156.82C383.81 156.42 384.4 152.51 387.77 152.42C389.923 152.342 392.076 152.56 394.17 153.07C395.68 153.35 402.51 146.64 407.17 147.01C411.83 147.38 414.5 154.19 417.53 154.47C420.56 154.75 424.44 153.28 425.28 153.91C426.12 154.54 429.16 159.69 430.08 160.06C431 160.43 430.2 161.84 430.73 162.44C431.26 163.04 432.59 163.2 433.96 164.16C435.33 165.12 436.57 165.93 437.16 167.61C437.7 169.332 437.786 171.165 437.41 172.93C437.08 174.33 436.32 174.51 436.49 176C436.66 177.49 438.68 179.64 438.42 181.22C438.16 182.8 436.57 187.75 433.79 188.03L433.72 188ZM285.13 458.69C285.39 459.97 286.72 460.53 288.04 460.53C289.9 460.53 291.34 459.25 291.58 455.23C291.085 455.828 290.462 456.307 289.758 456.632C289.054 456.957 288.285 457.121 287.51 457.11C283.71 457.11 281.01 454.22 281.01 449.99C281.01 446.75 282.4 442.14 288.09 442.14C289.93 442.14 295.54 442.35 295.54 452.68C295.54 454.91 295.27 464.16 287.85 464.16C283.21 464.16 281.85 460.86 281.37 458.69H285.13ZM267.03 459.17C267.29 460.44 268.62 461 269.92 461C271.78 461 273.21 459.72 273.44 455.73C272.954 456.32 272.343 456.794 271.651 457.117C270.959 457.441 270.203 457.606 269.44 457.6C265.66 457.6 262.97 454.72 262.97 450.52C262.97 447.29 264.35 442.7 269.97 442.7C271.79 442.7 277.38 442.91 277.38 453.19C277.38 455.41 277.11 464.61 269.73 464.61C265.11 464.61 263.73 461.33 263.29 459.17H267.03ZM377.7 496.33C380.912 494.886 383.887 492.96 386.52 490.62C389.226 488.017 391.604 485.091 393.6 481.91C393.6 481.91 401.27 468.91 403.6 457.38C404 455.81 408.89 438.15 406.73 435.38C387.87 357.08 425.19 393.18 431.34 341.67C429.34 341.67 445.21 371.4 443.08 388.36C443.08 388.54 443.08 388.73 443.08 388.91C456.57 381.91 449.26 360.6 442.02 353.38C436.79 348.59 438.79 344.28 444.02 345.38C447.68 346.17 450.21 349.45 452.47 352.89C460.13 364.56 457.93 389.03 445.71 393.17C444.63 393.79 443.64 394.46 442.79 395.04C445.11 411.74 427.14 436.04 412.79 456.04C410.18 459.77 408.39 464.69 409.33 464.82C410.27 464.95 413.28 459.53 415.51 457C417.74 454.47 423.39 446.79 426.08 443.66C441.08 422.44 445.66 408.11 458.5 405.4C472.96 402.35 481.03 406.88 502.15 405.51C507.34 405.18 508.88 404.72 512.37 404.32C498 414.9 498.27 416.32 488.45 432.93C476 454.1 461 452.36 436.88 453.78C427.94 454.86 422.48 461.35 419.6 464.6C416.72 467.85 409.42 479.5 409.42 479.5C414.187 480.351 419.027 480.73 423.87 480.63C427.816 479.751 431.831 479.219 435.87 479.04C435.87 476.78 427.79 479.26 420.24 479.33C417.24 479.39 414.05 479.42 415.02 478.42C416.2 477.22 418.44 475.42 420.31 475.42C422.18 475.42 426.31 475.65 429.23 475.42C433.579 475.218 437.935 475.262 442.28 475.55C443.62 475.78 443.74 474.95 442.67 474.55C441.6 474.15 431.21 474.06 428.67 474.06C420.98 474.06 420.75 474.13 420.89 474.06C419.884 474.105 418.883 474.208 417.89 474.37C417.29 474.37 416.5 474.77 416.34 474.55C416.18 474.33 419.74 471.3 423.83 470.76C427.92 470.22 435.51 470.39 440.83 470.57C446.15 470.75 447.96 471.05 451.16 470.93C454.36 470.81 455.61 470.39 456.74 469.85C457.87 469.31 459.74 468.68 459.49 468.24C459.24 467.8 452.73 469.07 443.75 468.58C437.95 468.26 427.07 468.75 427.07 468.75C427.07 468.75 436.66 457.75 450.15 457.75C463.64 457.75 475.74 465.03 475.77 466.75C475.8 468.47 468 486 454.27 486C440.54 486 437.18 483.12 426.27 483.12C415.36 483.12 404.06 489.38 399.39 490.73C394.72 492.08 383.3 497.62 380.3 497.62C377.3 497.62 376.91 496.46 377.66 496.29L377.7 496.33ZM454.48 391.18C458.8 382.51 457.62 369.49 458.58 370.59C462.07 374.59 464.15 370.73 465.75 367.41C466.483 365.897 467.186 364.31 467.86 362.65C463.86 345.58 455.86 332.27 448.42 315.22C443.9 304.91 450.77 291.28 447.6 281.09C463.03 289.91 472.78 299.31 478.17 309.09C478.08 307.78 477.94 306.55 477.75 305.41C443.58 252.41 493.65 267.55 464.83 221.15C509.71 247.15 499.5 272.15 491.04 293.58C489.693 297.399 488.594 301.3 487.75 305.26C488.959 304.125 489.936 302.767 490.63 301.26C494.72 291.43 508.87 288.85 508.74 302.71C493.41 296.13 486.2 314.71 483.5 329.71C483.414 335.036 482.5 340.316 480.79 345.36C475.71 369.16 468.25 387.11 467.38 383.28C466.53 384.28 468.08 384.28 468.59 384.08C475.92 382.26 477.91 369.63 479.13 367.18C485.5 354.78 480.33 335.67 501.06 327.64C505.43 326.33 513.68 311.78 513.06 309.52C513.12 310.81 518.17 321.62 521.29 327.99C530.17 351.6 527.55 365.29 491.67 378.47C482.086 384.84 471.806 390.094 461.03 394.13C462.4 394.13 490.65 399.67 484.43 389.34C484.11 382.6 502.83 379.78 501.73 379.43C510.3 412.82 464.73 394.03 447.03 408.48C447.03 408.48 451.81 395.78 454.44 391.21L454.48 391.18ZM277.27 216.6H382L381.5 264.22C373.3 269.97 369.5 314.56 370.44 316.41C370.72 316.96 368.5 320.28 372.78 339.33C373.42 342.14 378.19 356.62 383.05 369.05C400.46 413.59 384.83 461.74 335.55 472.8C330.883 473.847 325.93 474.847 320.69 475.8C299.63 479.54 281.62 495.92 281.44 496.08L279 497.91L276.65 496L275.86 495.31V495.16C270.04 490.48 255.6 480.06 239.34 477.16C234.113 476.24 229.16 475.24 224.48 474.16C175.2 463.19 159.56 415 177 370.5C181.86 358.07 186.63 343.59 187.26 340.79C191.55 321.74 189.33 318.41 189.61 317.86C190.55 316.01 187.25 269.11 179.06 263.35V216.76L277.27 216.6V216.6ZM278.75 489.09L279.03 489.33C284.36 484.86 300.51 472.47 319.6 469.09C368.47 460.42 394.05 423.72 376.06 370.29C376.06 370.37 370.37 355.54 370.34 355.48C365.91 346.81 362.56 330.43 362.47 318.18C362.469 313.847 362.779 309.519 363.4 305.23C364.04 300.65 366.78 270.05 374.4 263.39L186.7 263.57C194.29 270.23 196 302.1 196.63 306.68C197.258 310.968 197.572 315.296 197.57 319.63C197.48 331.88 194.13 348.26 189.69 356.94C189.69 356.99 183.99 371.83 183.97 371.74C165.97 425.17 191.56 461.88 240.44 470.54C257.35 473.54 271.96 483.61 278.78 488.98V489.09H278.75ZM220 18.84L223.79 31.38H236L226.1 39.14L229.88 51.67L220 43.92L210.1 51.67L213.88 39.14L204 31.38H216.2L220 18.84ZM279.6 8L283.38 20.54H295.62L285.71 28.29L289.5 40.83L279.6 33.08L269.69 40.83L273.47 28.29L263.57 20.54H275.81L279.6 8ZM335.8 20.06L339.58 32.61H351.83L341.92 40.35L345.7 52.9L335.8 45.15L325.9 52.9L329.68 40.35L319.77 32.61H332L335.78 20.06H335.8ZM388.89 49.72L392.68 62.26H404.92L395 70L398.78 82.54L388.87 74.79L379 82.55L382.77 70L372.87 62.25H385.11L388.89 49.71V49.72ZM419.06 161.35C417.4 160.35 417.4 157.05 416.39 157.01C415.63 157.01 415.92 158.52 415.51 159.45C415.1 160.38 414.22 160.52 413.73 162.13C413.24 163.74 412.32 168.58 412.95 168.92C413.58 169.26 415.52 168.53 417.48 167.49C419.44 166.45 423.79 164.68 423.97 164.02C424.15 163.36 420.72 162.36 419.06 161.35ZM135.92 179.56C132.55 180.56 127.58 176.56 126.51 178.02C126.314 178.568 126.286 179.162 126.428 179.726C126.571 180.291 126.877 180.8 127.31 181.19C128.82 182.37 134.59 184.46 134.42 185.28C134.25 186.1 127.84 188.28 126.24 187.82C124.64 187.36 121.36 185.28 121.18 181.92C121 178.56 122.25 178.74 122.78 176.66C123.31 174.58 119.78 170.76 122.33 167.22C124.88 163.68 127.49 163.4 129.09 161.77C130.69 160.14 131.4 156.42 134.09 154.77C136.78 153.12 139.77 155.5 143.33 154.5C146.89 153.5 147.68 147.33 153.46 147.42C159.24 147.51 164.02 150.78 165.89 152.23C167.76 153.68 169 152.32 170.06 152.23C171.12 152.14 173.97 151.6 175.06 152.6C176.15 153.6 178.7 156.68 178.7 156.68C178.7 156.68 174.79 156.59 172.48 158.49C170.212 160.51 168.198 162.796 166.48 165.3C165.68 166.57 165.59 167.57 164.53 167.66C163.47 167.75 162.22 165.76 161.42 165.94C160.62 166.12 162.58 168.57 161.15 168.75C159.72 168.93 159.73 169.93 158.66 168.75C157.59 167.57 155.82 165.39 155.29 165.39C154.76 165.39 156.09 168.3 155.11 169.84C153.58 171.806 151.909 173.657 150.11 175.38C147.89 177.64 143.45 177.01 140.43 175.56C137.41 174.11 139.58 178.47 135.89 179.56H135.92ZM137.59 195.87C137.294 195.665 137.058 195.384 136.909 195.057C136.759 194.729 136.701 194.368 136.74 194.01C136.74 192.56 138.55 189.58 141.96 188.46C145.783 187.025 149.419 185.135 152.79 182.83C156.31 180.56 159.57 177.66 162.33 176.37C165.09 175.08 167.54 173.74 168.63 174.18C169.72 174.62 170.42 176.57 170.46 177.61C170.5 178.65 166.94 181.7 163.85 183.2C160.76 184.7 157.75 184.8 156.27 185.58C154.79 186.36 153.64 187.8 152.2 188.99C150.76 190.18 149.53 189.77 147.62 190.33C145.71 190.89 143.81 191.06 143.14 191.99C142.47 192.92 139.79 193.75 139.32 193.99C138.85 194.23 138.05 195.8 137.59 195.85V195.87ZM154.3 207.87C154.11 208.46 152.99 208.46 152.24 208.17C151.49 207.88 149.96 205.23 149.77 204.45C149.259 203.23 148.455 202.155 147.43 201.32C146.73 200.93 144.16 200.88 143.33 200.55C143.205 200.362 143.127 200.147 143.101 199.923C143.075 199.699 143.102 199.472 143.18 199.26C143.47 198.58 143.65 199.07 145 199.46C146.066 199.755 147.187 199.789 148.27 199.56C149.44 199.41 148.97 198.56 149.54 197.9C150.11 197.24 149.82 197.31 149.4 196.23C148.98 195.15 149.58 195.35 150.14 194.52C150.469 193.95 151.007 193.531 151.64 193.35C152.29 193.05 152.64 193.44 153.64 193.64C154.64 193.84 154.52 194.37 155.13 194.72C155.74 195.07 156.53 194.62 157.29 195.21C158.05 195.8 157.18 197.46 156.29 198.21C155.4 198.96 153.35 200.46 153.44 201.63C153.53 202.8 154.52 207.26 154.33 207.84L154.3 207.87ZM172.05 268.6C172.56 271.95 172.56 276.05 172.05 277.45C171.432 279.882 171.222 282.399 171.43 284.9C172.151 287.745 172.702 290.63 173.08 293.54C173.18 295.7 173.59 298.63 172.87 300.23C172.15 301.83 172.06 306.06 170.5 305.85C168.94 305.64 165.96 299.36 164.31 298.5C162.66 297.64 154.52 297.64 150.4 298.07C146.28 298.5 138.85 298.07 136.68 298.5C134.51 298.93 135.03 300.34 133.07 300.02C131.11 299.7 129.67 296.67 129.77 294.29C129.87 291.91 131.77 287.6 133.77 280.47C136.122 271.821 137.876 263.02 139.02 254.13C139.74 247.44 141.91 236.42 141.81 230.59C141.71 224.76 144.9 221.09 144.9 218.17C144.9 215.25 140.99 214.61 140.68 211.59C140.53 210.19 144.28 205.22 145.93 205.32C147.58 205.42 149.18 207.92 150.79 211.59C152.13 214.59 150.35 224.07 150.57 226.05C150.79 228.03 150.99 229.62 151.57 227.78C152.15 225.94 152.46 223.19 153.02 220.78C153.524 218.286 154.344 215.867 155.46 213.58C156.4 212.03 161.46 209.34 162.46 209.23C163.46 209.12 165.34 209.34 165.46 210.31C165.58 211.28 161.03 213.44 160.21 215.38C159.114 218.645 158.183 221.962 157.42 225.32C157.01 227.05 155.98 229.1 156.08 230.39C156.18 231.68 156.8 233.39 155.67 235.79C154.54 238.19 150.37 248.03 149.07 250.48C147.01 254.36 145.77 270.13 146.29 270.24C146.81 270.35 149.89 260.24 150.93 260.24C151.97 260.24 150.64 267.75 150.73 269.24C150.82 270.73 150.41 274.02 151.34 274.77C152.27 275.52 155.59 272.83 155.83 271.21C156.07 269.59 154.43 249.4 155.05 247.02C155.67 244.64 161.54 234.39 161.96 231.69C162.38 228.99 162.63 215.64 164.15 215.4C165.67 215.16 167.42 220.68 168.15 224.46C168.88 228.24 169.15 239.36 169.29 242.38C169.43 245.4 169.8 261.92 169.8 263.22C169.8 264.52 171.45 265.27 171.97 268.62L172.05 268.6ZM423.53 264.07C424.37 267.69 426.71 280.01 428.11 284.9C429.51 289.79 430.45 293.41 430.11 295.66C429.77 297.91 428.71 299.87 426.38 299.19C424.05 298.51 414.38 297.62 409.1 297.62C403.82 297.62 395.71 296.62 395.02 298.18C394.33 299.74 392.94 305.84 391.02 305.54C389.1 305.24 386.82 297.91 387.19 294.68C387.56 291.45 388.87 285.49 389.06 283.68C389.25 281.87 387.35 270 388.41 267C389.47 264 390.7 262.39 390.82 260.93C390.94 259.47 390.56 239.13 390.75 232.67C390.94 226.21 394.11 214.77 395.42 214.67C396.73 214.57 397.01 228.67 398.5 231.3C399.99 233.93 403.73 239.22 404.29 243.3C404.85 247.38 403.55 256.12 404.11 262.96C404.67 269.8 407.47 275.19 408.31 274.8C409.15 274.41 410.05 272.6 409.88 270.18C409.71 267.76 408.22 259.54 409.06 259.05C409.9 258.56 413.19 270.05 413.82 270.1C414.45 270.15 414.66 257.29 413.35 254.26C412.04 251.23 408.03 244.57 405.88 238.9C403.73 233.23 404.01 229.31 403.17 225.4C402.33 221.49 400.84 214.25 398.59 212.69C396.34 211.13 394.21 210.34 394.67 209.46C395.13 208.58 400.37 207.31 402.67 210.14C405.189 213.396 406.859 217.228 407.53 221.29C408.19 225.29 408.28 226.92 409.53 226.92C410.78 226.92 408.83 215.33 409.67 211.56C410.51 207.79 412.28 204.86 413.67 204.71C415.06 204.56 417.78 206.52 418.25 207.79C418.72 209.06 419.6 210.97 418.95 212.1C418.3 213.23 414.84 216.55 415.35 217.97C415.86 219.39 418.51 221.76 418.73 224.07C418.95 226.38 419.65 240.61 420.02 243.79C420.39 246.97 422.68 260.42 423.52 264.04L423.53 264.07ZM410 200C410.65 200.64 413.5 199.41 414.81 199.46C416.12 199.51 415.64 200.59 415.04 201.18C414.44 201.77 410.56 201.52 409.72 203.03C408.88 204.54 407.05 208.22 405.18 208.22C403.31 208.22 404.86 203.86 405.23 201.81C405.6 199.76 401.04 198.33 401.23 195.74C401.33 194.67 402.07 194.91 403.57 194.74C405.07 194.57 405.08 193.21 406.79 193.27C408.5 193.33 409.26 194.84 409.17 196.4C409.08 197.96 409.31 199.4 409.97 200.02L410 200ZM420.57 193C420.1 194.69 416.83 191.63 416.29 191.07C414.864 189.894 413.171 189.087 411.36 188.72C409.027 188.211 406.94 186.915 405.45 185.05C403.97 183.21 403.02 183.87 399.72 182.8C396.42 181.73 391.64 177.04 391.93 174.9C392.22 172.76 392.47 173.31 393.09 172.75C393.71 172.19 397.77 174.18 400.09 175.51C402.41 176.84 405.75 180.71 408.32 182.75C410.89 184.79 415.71 187.09 417.71 188.21C419.71 189.33 421.08 191.32 420.61 193H420.57ZM272.57 163.59H273.57C274.75 163.59 275.94 163.59 277.17 163.59H277.89C279.12 163.59 280.31 163.59 281.49 163.59H281.86L284.39 163.52C285.085 163.599 285.776 163.716 286.46 163.87C289.14 164.52 292.46 169.02 296.37 171.73C302.066 175.452 308.091 178.645 314.37 181.27C319.788 183.528 325.366 185.38 331.06 186.81C337.65 188.52 344.11 189.4 344.06 190.15C344.01 190.9 341.55 190.62 332.89 189.69C324.731 188.774 316.688 187.018 308.89 184.45C302.99 182.39 293.89 177.81 286.47 173.5C279.61 169.5 272.94 164.95 272.59 163.58L272.57 163.59ZM260.57 162.99C262.27 163.12 264.03 163.23 265.87 163.33C266.11 163.82 272.46 168.61 274.87 170.33C278.96 173.128 283.237 175.644 287.67 177.86C291.03 179.38 302 183.93 303.45 184.52C304.9 185.11 312.74 187.52 316.2 188.52C319.66 189.52 328.59 191 332 191.57C335.41 192.14 342.79 193.03 345.31 192.84C347.83 192.65 354.84 191.27 354.84 190.64C354.84 190.01 346.12 188.46 336.58 186.28C331.236 185.159 326.025 183.483 321.03 181.28C321.03 181.28 306.27 174.03 303.76 172.19C301.25 170.35 292.35 165.14 292.63 164.06C292.678 163.845 292.774 163.643 292.911 163.47C293.047 163.297 293.221 163.157 293.42 163.06C295.84 162.89 298.11 162.69 300.24 162.48C301.141 162.402 302.048 162.402 302.95 162.48C304.03 162.68 310.49 169.61 314.3 171.88C318.11 174.15 327.38 177.45 334.48 179.6C341.58 181.75 344.94 183.42 351.01 184.89C357.08 186.36 363.74 188.04 366.7 187.13C369.66 186.22 370.16 185.67 369.6 184.4C369.04 183.13 368.48 182.54 368.99 182.4C372.324 182.087 375.687 182.375 378.92 183.25C382.92 184.55 383.7 185.92 385.57 186.12C387.44 186.32 392.48 185.73 395.1 186.61C397.72 187.49 402.2 189.35 401.63 191.61C401.06 193.87 397.83 194 396.03 193.27C394.23 192.54 392.11 189.55 388.37 189.55C384.63 189.55 370.37 195.22 363.06 195.62C355.75 196.02 333.92 196.4 324.39 196.01C315.119 195.703 305.938 194.087 297.12 191.21C288.71 188.38 278.01 179.75 274.63 177.07C271.25 174.39 260.69 165.69 258.96 163.63C258.63 163.24 259.21 163.03 260.57 162.94V162.99ZM307.18 161.7C311.18 161.2 314.37 160.7 316.74 160.25C320.872 164.759 325.832 168.432 331.35 171.07C337.711 173.956 344.228 176.486 350.87 178.65C355.12 180.06 361.76 183.56 361.75 183.93C361.74 184.3 355.16 184.32 348.16 182.02C341.16 179.72 337.51 178.02 332.56 176.4C327.61 174.78 320 172.1 316.07 170C312.14 167.9 307.76 163.3 307.15 162C307.116 161.913 307.116 161.817 307.15 161.73L307.18 161.7ZM305.9 99.64C308.72 99.64 311.01 102.38 311.01 105.76C311.01 109.14 308.72 111.89 305.9 111.89C300.15 111.06 301.23 99.89 305.9 99.64ZM271.19 94.45C271.19 94.06 271.57 93.77 272.19 93.77C272.81 93.77 272.74 94.3 274.13 94.3C275.52 94.3 277.04 90.61 277.92 90.46C278.297 90.1376 278.758 89.9295 279.25 89.86C279.543 89.8976 279.83 89.9785 280.1 90.1C280.335 90.1528 280.558 90.2477 280.76 90.38C281.3 90.47 282.5 92.89 283.92 93.85C284.8 94.44 286.13 93.77 286.37 93.77C287.02 93.77 287.37 94.06 287.37 94.45C287.37 94.84 284.64 98 284 98.09C283.36 98.18 281.27 93.91 279.27 93.91C277.27 93.91 275.14 98.13 274.54 98.09C273.94 98.05 271.15 94.83 271.15 94.45H271.19ZM247.52 105.45C247.52 102.06 249.9 99.6 252.72 99.6C253.6 99.6 254.33 100.37 254.92 100.91C256.21 102.08 256.81 103.91 256.81 106.19C256.849 107.026 256.704 107.86 256.386 108.634C256.068 109.408 255.585 110.103 254.97 110.67C254.336 111.253 253.56 111.66 252.72 111.85C249.9 111.85 247.52 108.85 247.52 105.45V105.45ZM237.63 121.01C236.833 120.131 235.963 119.321 235.03 118.59C234.808 118.611 234.59 118.658 234.38 118.73C234.207 119.728 234.255 120.752 234.52 121.73C234.98 122.73 235.59 124.16 235.22 124.73C234.85 125.3 232.67 124.54 231.37 122.5C229.665 119.834 228.762 116.734 228.77 113.57C228.77 109.57 229.38 105.8 232.34 105.8C233.4 105.8 234.418 106.221 235.168 106.972C235.918 107.722 236.34 108.739 236.34 109.8C236.34 111.35 234.81 113.88 234.76 115.09C234.71 116.3 236.24 117.47 237.63 117.71C239.02 117.95 240.63 118.93 240.84 120.09C241.05 121.25 241.84 124.87 241.26 125.09C240.68 125.31 238.79 122.17 237.59 121L237.63 121.01ZM242.16 152.65C241.88 151.29 241.34 142.38 242.04 141.03C242.75 140.47 246.56 139.03 254.04 137.17C261.52 135.31 274.3 134.81 275.13 135.17C275.96 135.53 275.13 145.17 274.23 145.58C274.23 144.58 254.62 146.95 242.17 152.63L242.16 152.65ZM314.52 155.95C304.89 153.74 294.57 149.42 279.62 148.88C267.17 148.42 255.62 151.32 243.87 155.56C243.838 154.801 244.056 154.053 244.49 153.43C256.89 147.66 275.74 146.43 279.73 146.6C279.73 146.6 289.94 147.33 295.51 148.23C301.08 149.13 313.2 152.6 314.12 153.57C315.04 154.54 315.01 156.02 314.52 155.95ZM277.27 139.03C277.46 137.81 278.47 137.66 279.27 137.62C280.07 137.58 281.13 137.82 281.27 139.03C281.41 140.24 281.18 142.77 280.62 143.03C280.181 143.221 279.708 143.32 279.23 143.32C278.751 143.32 278.278 143.221 277.84 143.03C277.28 142.74 277.01 140.21 277.19 139.03H277.27ZM287.87 141.93C288.11 140.09 287.39 138.6 289.55 138.43C291.71 138.26 293.05 138.26 292.81 140.6C292.57 142.94 291.54 144.27 290.34 144.27C289.14 144.27 287.63 143.77 287.87 141.93V141.93ZM306.75 143.26C305.24 142.6 304.52 143.18 302.69 143.18C300.86 143.18 299.59 141.85 299.19 142.77C298.79 143.69 299.5 144.85 299.74 145.52C299.98 146.19 300.62 145.85 299.35 146.77C298.81 147.15 295.76 144.85 296.08 142.27C296.4 139.69 299.74 138.85 303.08 138.93C306.42 139.01 310.08 140.93 309.61 143.35C309.14 145.77 307.3 147.69 306.74 147.44C306.18 147.19 308.25 143.93 306.74 143.26H306.75ZM327.25 122.47C325.95 124.47 323.77 125.24 323.4 124.7C323.03 124.16 323.63 122.76 324.1 121.7C324.365 120.722 324.412 119.698 324.24 118.7C324.029 118.628 323.811 118.581 323.59 118.56C322.656 119.291 321.786 120.101 320.99 120.98C319.79 122.15 317.89 125.31 317.32 125.07C316.75 124.83 317.56 121.23 317.75 120.07C317.94 118.91 319.55 117.94 320.95 117.69C322.35 117.44 323.87 116.29 323.82 115.07C323.77 113.85 322.24 111.33 322.24 109.78C322.24 108.719 322.661 107.702 323.411 106.952C324.161 106.201 325.179 105.78 326.24 105.78C329.24 105.78 329.86 109.52 329.81 113.55C329.817 116.714 328.915 119.814 327.21 122.48L327.25 122.47ZM145.46 169.85C146.4 169.36 146.57 157.32 145.51 157.32C144.45 157.32 143.32 160.66 141.82 161.32C140.32 161.98 136.98 161.59 136.65 163.07C136.65 163.07 144.53 170.32 145.46 169.83V169.85ZM300.28 447H300.82C302.63 447 305.29 445.78 305.65 443.29H308.89V464H304.58V449.45H300.28V447ZM288.14 445.77C285.7 445.77 284.81 447.97 284.81 449.87C284.81 452.38 286.25 453.87 288.17 453.87C290.68 453.87 291.58 451.76 291.58 449.87C291.58 448.92 291.18 445.71 288.14 445.71V445.77ZM270.03 446.08C267.6 446.08 266.71 448.27 266.71 450.16C266.71 452.65 268.15 454.16 270.05 454.16C272.56 454.16 273.44 452.06 273.44 450.22C273.44 449.22 273.06 446.08 270.03 446.08ZM249.12 447H249.67C251.47 447 254.13 445.78 254.5 443.29H257.73V464H253.42V449.45H249.12V447ZM294 506.21H420.18V503.8H294V506.21V506.21ZM138.84 506.21H265V503.8H138.85V506.21H138.84ZM470.54 550.56L426.17 489.33C424.889 489.216 423.6 489.216 422.32 489.33C421.139 489.582 419.989 489.961 418.89 490.46L447.89 538.66C447.89 538.66 402.38 526.28 375.12 523.48C355.78 521.48 331.82 521.71 314.04 524.37C296.26 527.03 278 536 278 536L277.87 536.06L277.72 536C277.72 536 259.47 527 241.72 524.37C223.97 521.74 199.99 521.49 180.65 523.48C153.39 526.28 107.88 538.66 107.88 538.66L136.88 490.46C135.777 489.96 134.624 489.581 133.44 489.33C132.162 489.216 130.877 489.216 129.6 489.33L85.1896 550.56H85.4696L260.8 540.16L259.99 548.38H295.76L294.95 540.16L470.28 550.56H470.54ZM187.84 463.92C187.84 463.92 192.84 465.79 193.94 466.81C195.04 467.83 196.49 474.45 197.94 477.68C199.39 480.91 199.69 482.95 200.82 484.98C201.95 487.01 199.95 487.36 198.32 485.66C196.69 483.96 192.71 482.6 192.73 481.58C192.75 480.56 191.27 478.7 189.83 475.47C188.39 472.24 186.42 470.21 186.44 468.33C186.554 466.673 186.801 465.027 187.18 463.41L187.84 463.92ZM105.28 311.57C105.28 311.57 96.2096 321.63 95.1596 324.37C93.596 328.495 92.2902 332.713 91.2496 337C91.0003 333.927 91.2297 330.833 91.9296 327.83C91.7496 324.17 96.9296 314.92 105.28 311.58V311.57ZM126 448.33C123.68 448.56 116.59 444.33 112.92 442.65C110.799 441.04 108.417 439.806 105.88 439C95.0096 443.27 77.9396 429.79 78.1996 429.59C76.6596 428.94 97.7496 440.35 105.5 435.86C106.5 435.32 102.5 432.2 100.64 430.63C99.1296 429.5 93.8196 426.14 91.8496 425.98C86.767 425.774 81.7917 424.454 77.2749 422.115C72.7582 419.775 68.8101 416.473 65.7096 412.44C65.9196 412.26 72.9696 418.75 82.4796 421.23C85.5996 422.6 91.9996 424 93.5396 423.76C91.3296 421.06 86.3196 412.38 87.5396 410.32C87.9996 411.69 100.26 428.17 103.38 429C104.38 430.38 105.29 430 105.77 428.94C106.18 427.63 105.64 418.81 106.42 418.83C107.2 418.85 106.85 429.39 110 435.46C113.024 438.307 116.234 440.949 119.61 443.37C122.45 444.78 126.78 448.61 126.02 448.37L126 448.33ZM144.19 441.18C143.41 441.18 142.66 439.83 141.65 438.36C140.64 436.89 137.72 426.16 135.83 423.45C133.94 420.74 122.83 410.5 123.25 407.08C123.64 406.74 131.58 416.08 132.47 416.63C133.36 417.18 133.74 417.58 134.52 416.63C132.52 398.1 118.46 392.63 119.7 391.95C127.7 394.22 132.18 399.85 134.89 402.44C135.69 402.31 134.38 399.54 134.01 398.36C125.57 386.36 126.56 380.84 130.08 363.51C130.16 363.15 128.37 375.92 132.26 386.34C132.51 387.01 132.73 381.21 141.06 377.34C141.32 377.22 135.06 383.52 133.45 390.15C133.63 394.39 135.54 395.92 136.84 397.98C139.54 402.27 137.97 411.05 137.9 415.83C137.9 417.57 138.51 421.94 139.31 421.94C140.11 421.94 140.11 418.65 140.15 416.25C139.41 407.25 144.78 392.53 152.34 389.17C141.41 397.69 142.73 430.31 147 440.17C147.74 441.9 144.31 441.1 144.19 441.1V441.18ZM77.2496 378.13C77.5196 378.71 79.8896 380 78.3196 381.02C78.0496 381.2 64.7696 370.41 61.6496 368.86C59.2196 367.15 47.3196 364.07 46.7596 364.27C47.4596 362.16 58.3896 365.63 59.2596 363.77C36.9996 354.15 37.8496 350.58 38.7496 343.9C39.4896 353.36 61.5796 363.77 51.9296 351.99C44.0496 342.25 43.2196 333.41 44.9296 326.52C43.5996 342.3 60.3596 357.58 63.7296 365C63.3996 357 56.2496 348 63.9096 339.05C61.3296 344.26 60.7596 361.68 77.2496 378.18V378.13ZM75.2496 293.42C74.5296 293.62 74.9396 286.91 74.3496 283.67C75.2396 279.55 65.8696 270.56 64.8696 271C65.3096 270.46 69.4396 271.39 71.0496 272.3C72.7396 273.83 73.4196 277.3 76.6996 281.09C77.2796 281.63 79.6996 281.45 79.3896 273.33C76.3896 259.07 61.3896 258.67 84.5996 235.99C76.0496 244.74 74.5996 254.6 80.1396 264.49C85.0696 271.18 83.5896 277.2 78.5396 284.09C77.6396 285.32 75.9696 293.22 75.2496 293.42V293.42ZM81.9096 329.49C81.8196 328.79 81.7196 328.1 81.6396 327.41C82.8896 328.66 84.6396 330.29 85.4996 330.32C86.8696 330.37 87.7696 325.49 87.8196 323.51C87.6226 320.195 87.2421 316.893 86.6796 313.62C86.4996 312.7 86.1396 311.13 85.9396 310.44C85.8742 310.335 85.8268 310.22 85.7996 310.1C85.7996 310.01 85.8496 310.17 85.9296 310.48C86.3796 311.48 87.9896 314.37 88.1796 315.48C88.5659 316.871 89.1094 318.213 89.7996 319.48C91.7296 315.48 93.7996 309.7 96.7196 304.65C99.6596 300.75 100.72 300.82 99.9496 302.33C99.1796 303.84 95.3096 312.39 95.3296 312.33C95.0896 312.66 89.4896 326.57 88.3896 332.53C88.0796 335.02 88.2496 348.86 88.2496 348.86C88.2496 348.86 86.3496 342.16 86.2496 340.69C86.1496 339.22 84.8296 333.62 83.7496 332.52C83.0298 331.563 82.4162 330.53 81.9196 329.44L81.9096 329.49ZM165.46 446C165.46 446 162.92 467.66 167.99 476.41C176.19 490.57 185.54 496.81 200.25 499.67C200.25 499.67 212.12 501.62 217.43 501.62C221.443 501.538 225.449 501.234 229.43 500.71C224.906 497.607 220.823 493.907 217.29 489.71L215.41 487.35C215.318 487.256 215.238 487.152 215.17 487.04C209.82 479.58 209.94 472.54 208 471.19C206.06 469.84 198.74 467.68 197.57 467.82C196.4 467.96 196.13 468.72 196.76 469.76C198.545 472.828 200.058 476.047 201.28 479.38C202.14 482.38 202.08 485.87 203.36 487.17C204.64 488.47 209.78 491.92 210.81 492.7C211.84 493.48 213.1 493.7 213.08 494.7C213.06 495.7 213.17 497.18 212.53 497.17C209.85 497.17 205.46 492.06 199.71 488.85C195.58 486.55 193.98 484.96 190.47 483.79C187.92 482.93 183.47 482.1 183.01 481.19C182.55 480.28 183.44 480.08 185.01 480.48C186.58 480.88 189.61 481.09 190.27 480.7C190.93 480.31 184.85 472.09 182.03 469.83C177.3 468.59 168.57 458.89 169.03 458.44C175.49 463.58 178.56 465.44 184.32 467.77C185.5 468.24 185.47 464.86 185.26 464.1C185.05 463.34 180.76 460.49 177.09 458.58C172.723 456.14 169.18 452.458 166.91 448C166.536 447.262 166.202 446.504 165.91 445.73C165.91 445.73 166.08 444.99 165.49 446H165.46ZM372.52 463.6C372.52 463.6 367.62 465.5 366.52 466.53C365.42 467.56 364.01 474.3 362.58 477.59C361.15 480.88 360.85 482.94 359.73 485.01C358.61 487.08 360.59 487.43 362.2 485.7C363.81 483.97 367.74 482.59 367.73 481.55C367.72 480.51 369.17 478.62 370.6 475.34C372.03 472.06 373.97 469.99 373.94 468.09C373.827 466.407 373.583 464.735 373.21 463.09L372.56 463.61L372.52 463.6ZM454.16 308.73C454.16 308.73 463.16 318.95 464.16 321.73C465.7 325.928 466.983 330.216 468 334.57C468.243 331.444 468.018 328.299 467.33 325.24C467.5 321.53 462.33 312.12 454.12 308.73H454.16ZM433.65 447.73C435.95 447.96 442.96 443.68 446.59 441.95C448.692 440.329 451.061 439.087 453.59 438.28C464.33 442.63 481.22 428.92 480.95 428.72C482.49 428.06 461.62 439.66 453.95 435.1C453.01 434.55 456.87 431.38 458.75 429.78C460.24 428.63 465.49 425.22 467.44 425.05C472.502 424.826 477.451 423.474 481.923 421.091C486.396 418.709 490.279 415.357 493.29 411.28C493.08 411.11 486.1 417.7 476.7 420.22C473.62 421.57 467.32 423.01 465.77 422.76C467.95 420.01 472.91 411.19 471.68 409.09C471.24 410.48 459.13 427.24 456.04 428.04C455.04 429.45 454.15 429.04 453.67 427.98C453.27 426.65 453.8 417.68 453.04 417.71C452.28 417.74 452.61 428.44 449.5 434.61C446.509 437.483 443.332 440.155 439.99 442.61C437.18 444.04 432.91 447.93 433.65 447.69V447.73ZM481.88 376.37C481.61 376.96 479.26 378.27 480.81 379.31C481.08 379.49 494.21 368.51 497.3 366.94C499.71 365.2 511.47 362.08 512.02 362.28C511.33 360.13 500.53 363.67 499.66 361.77C521.66 351.99 520.84 348.36 519.95 341.57C519.21 351.19 497.37 361.77 506.95 349.79C514.74 339.89 515.57 330.91 513.95 323.9C515.23 339.95 498.65 355.47 495.32 362.97C495.65 354.88 502.72 345.73 495.15 336.59C497.7 341.89 498.26 359.59 481.96 376.37H481.88ZM483.82 290.25C484.53 290.46 484.13 283.64 484.72 280.34C483.83 276.15 493.1 267.02 494.09 267.46C493.65 266.91 489.57 267.86 487.98 268.79C486.31 270.34 485.63 273.87 482.39 277.72C481.82 278.27 479.39 278.08 479.73 269.83C482.73 255.33 497.51 254.93 474.58 231.83C483.03 240.73 484.43 250.75 478.99 260.83C474.11 267.64 475.58 273.76 480.57 280.76C481.46 282.01 483.11 290.04 483.82 290.24V290.25ZM477.24 326.92C477.33 326.21 477.43 325.5 477.51 324.8C476.28 326.08 474.51 327.73 473.69 327.8C472.34 327.8 471.44 322.89 471.4 320.87C471.588 317.502 471.966 314.146 472.53 310.82C472.7 309.88 473.06 308.29 473.26 307.58C473.325 307.476 473.369 307.361 473.39 307.24C473.39 307.14 473.34 307.31 473.27 307.63C472.82 308.69 471.27 311.58 471.04 312.75C470.66 314.14 470.123 315.482 469.44 316.75C467.53 312.69 465.44 306.82 462.6 301.68C459.69 297.68 458.6 297.78 459.4 299.32C460.2 300.86 464 309.56 464 309.55C464.23 309.89 469.78 324.02 470.86 330.08C471.17 332.61 471 346.68 471 346.68C471 346.68 472.88 339.87 473 338.38C473.12 336.89 474.41 331.19 475.48 330.07C476.195 329.096 476.802 328.046 477.29 326.94L477.24 326.92ZM394.66 445.38C394.66 445.38 397.17 467.38 392.16 476.29C384.05 490.69 374.81 497.03 360.26 499.94C360.26 499.94 348.52 501.94 343.26 501.94C339.272 501.858 335.292 501.548 331.34 501.01C335.943 497.764 340.078 493.901 343.63 489.53L343.96 489.12C344.25 488.76 344.17 488.84 344.47 488.46C350.75 480.41 350.47 472.46 352.53 471.03C354.59 469.6 361.69 467.47 362.84 467.6C363.99 467.73 364.26 468.52 363.64 469.6C361.87 472.72 360.378 475.989 359.18 479.37C358.32 482.37 358.38 485.97 357.12 487.3C355.86 488.63 350.77 492.12 349.75 492.91C348.73 493.7 347.49 493.91 347.5 494.96C347.51 496.01 347.41 497.48 348.05 497.47C350.69 497.47 355.05 492.28 360.73 489.02C364.8 486.67 366.39 485.02 369.86 483.86C372.38 482.99 376.75 482.15 377.24 481.22C377.73 480.29 376.81 480.1 375.24 480.5C373.67 480.9 370.69 481.12 370.04 480.72C369.39 480.32 375.4 471.97 378.18 469.72C382.86 468.46 391.49 458.59 391.02 458.14C384.64 463.37 381.59 465.3 375.9 467.63C374.74 468.1 374.77 464.63 374.97 463.89C375.17 463.15 379.42 460.23 383.05 458.28C389.21 454.99 392.32 449.16 393.17 447.49C393.74 446.38 394.17 445.19 394.17 445.19C394.17 445.19 394 444.43 394.58 445.46L394.66 445.38ZM168.59 51.55L172.37 64.09H184.62L174.71 71.84L178.5 84.38L168.59 76.63L158.69 84.38L162.47 71.84L152.57 64.09H164.81L168.59 51.55ZM295.59 487.11H344.59L342.4 489.74L291.8 489.65L295.55 487.07L295.59 487.11ZM262.85 487.11L216.48 487L218.48 489.72H266.36L262.85 487.14V487.11ZM415.71 440.48C416.48 440.48 417.22 439.11 418.22 437.61C419.22 436.11 422.1 425.21 423.97 422.46C425.84 419.71 436.85 409.3 436.41 405.82C436.03 405.47 428.18 414.95 427.3 415.52C426.42 416.09 426.05 416.52 425.3 415.57C427.23 396.73 441.18 391.14 439.96 390.48C432.04 392.79 427.62 398.48 424.96 401.14C424.18 401.01 425.47 398.19 425.84 397C434.18 384.82 433.2 379.18 429.72 361.56C429.65 361.2 431.41 374.18 427.57 384.78C427.32 385.46 427.1 379.56 418.86 375.63C418.61 375.51 424.75 381.92 426.39 388.63C426.21 392.94 424.32 394.49 423.03 396.63C420.37 400.98 421.92 409.91 422.03 414.77C422.03 416.54 421.43 420.99 420.63 420.99C419.83 420.99 419.84 417.64 419.81 415.2C420.54 406.06 415.23 391.09 407.75 387.67C418.55 396.34 417.25 429.5 413.03 439.55C412.3 441.3 415.69 440.49 415.81 440.49L415.71 440.48ZM279.39 103.89C281.9 103.89 283.32 107.54 283.32 111.05C283.32 114.56 281.16 118.05 279.32 118.05C277.48 118.05 275.56 115.05 275.56 111.84C275.56 108.63 276.73 103.92 279.41 103.92L279.39 103.89ZM278.08 121H280.78C280.78 121 280.78 124.89 282.63 126.88C284.034 128.263 285.664 129.396 287.45 130.23L287.37 131.56L271.32 131.73V130.23C273.065 129.299 274.66 128.109 276.05 126.7C279.2 122.39 278.11 120.93 278.05 121H278.08ZM269 144.8C272.11 144.8 272.66 139.07 271.6 139.16C270.54 139.25 271.6 143.54 269.05 143.54C266.5 143.54 267.24 139.74 266.31 139.65C265.38 139.56 265.89 144.8 269 144.8V144.8ZM259.5 146.35C260.545 146.215 261.498 145.678 262.155 144.853C262.812 144.028 263.122 142.98 263.02 141.93C262.97 138.34 258.33 138.4 255.55 138.4C252.55 138.4 248.88 141.06 248.79 143.1C248.7 145.14 251.01 146.79 252.73 146.74C254.45 146.69 252.12 143.19 255.65 143.05C259.18 142.91 258.85 146.35 259.5 146.35ZM254.3 141.13C253.37 141.37 251.43 142.47 251.61 143.29C251.79 144.11 253.01 145.53 252.49 145.82C251.97 146.11 249.67 145.04 249.71 143.82C249.989 142.448 250.745 141.219 251.843 140.35C252.941 139.481 254.31 139.028 255.71 139.07C257.33 139.07 260.39 139.68 261.57 140.96C261.84 141.26 261.89 141.79 262.57 141.73C262.542 142.397 262.343 143.047 261.993 143.616C261.643 144.184 261.153 144.654 260.57 144.98C260.47 143.93 261.73 141.98 259.82 141.65C257.91 141.32 257.82 142.36 256.49 142.36C255.16 142.36 255.28 140.93 254.35 141.17L254.3 141.13ZM239.9 160.37C242.4 160.85 245.08 161.37 250.3 162C251.39 162.48 252.37 163.11 252.3 163.59C252.12 164.47 250.81 165.25 249.69 165.94C248.57 166.63 246.87 168.84 245.92 169.26C244.97 169.68 243.81 170.44 238.01 173.61C232.21 176.78 230.91 177.68 230.91 177.68C231.249 177.944 231.65 178.118 232.075 178.186C232.499 178.254 232.934 178.214 233.34 178.07C235.02 177.68 238.95 176.41 240.16 175.53C241.37 174.65 245.39 170.8 248.66 169.07C251.93 167.34 254.24 166.45 257.07 166.82C259.9 167.19 260.34 170.73 258.94 173.61C257.54 176.49 245.39 182.18 245.39 182.18C245.39 182.18 248.94 182.18 250.44 182.08C251.94 181.98 258 179.52 259.44 178.75C260.88 177.98 266.63 176.89 267.94 176.41C269.25 175.93 269.18 177.13 269.94 178.12C270.7 179.11 270.13 179.93 269.11 181.69C268.09 183.45 265.46 184.92 262.85 185.69C260.24 186.46 257.34 188.69 253.85 189.63C250.36 190.57 247.85 190.78 244.56 191.56C241.27 192.34 230.65 194.88 227.28 195.18C223.91 195.48 221.96 196.35 218.87 196.65C215.78 196.95 196.27 196.35 194.5 196.15C190.047 195.182 185.651 193.974 181.33 192.53C177.931 191.521 174.435 190.877 170.9 190.61C169.529 190.897 168.241 191.488 167.13 192.34C165.519 193.414 163.756 194.24 161.9 194.79C160.13 195.37 159.76 194.55 159.29 193.12C158.82 191.69 158.81 191.12 159.84 189.99C160.87 188.86 163.49 188.04 164.84 187.74C166.19 187.44 172.41 186.96 176.15 186.47C179.89 185.98 180.44 183.24 180.44 183.24C180.44 183.24 186.23 183.05 190.81 182.66C195.39 182.27 213.51 177.66 222.66 172C231.81 166.34 238.54 160.93 239.15 160.62C239.419 160.494 239.705 160.406 240 160.36L239.9 160.37Z" fill="#163C94"></path> <path fill-rule="evenodd" clip-rule="evenodd" d="M258.6 290.65C247.6 293.19 243.67 302.58 260.02 304.09C266.9 304.72 274.52 300.82 274.8 295.69C274.8 287.12 265.11 277.26 247.54 277.26C229.97 277.26 206.21 285.47 206.21 320.1C206.21 354.73 233.21 368.1 242.98 368.1C268.73 368.1 283.98 343.58 258.08 340.46C258.08 340.46 243.29 339.72 243.29 347.26C243.29 354.8 255.14 354.71 255.14 354.71C255.14 354.71 255.22 362.11 247.21 362.11C239.2 362.11 229.14 353.78 229.14 326.6C229.14 326.6 222.3 327.45 222.3 323.98C222.3 320.51 230.15 320.54 232.53 320.54C239.44 320.54 247.41 324.97 248.98 324.97C249.635 324.92 250.253 324.643 250.726 324.187C251.199 323.73 251.497 323.123 251.57 322.47C251.65 321.47 250.65 320.82 250.65 319.47C250.65 318.12 260.1 316.26 260.1 312.4C259.362 312.213 258.588 312.213 257.85 312.4C256.93 312.73 240.85 316.12 231.57 316.12C222.29 316.12 221.71 313.83 221.78 312.12C222.03 305.12 230.72 297.29 230.9 296.46C230.96 296.18 230.73 296.05 229.31 296.05C227.89 296.05 228.14 296.28 225.75 296.28C223.36 296.28 223.53 295.42 223.53 295.06C223.53 294.7 229.77 284.85 245.96 284.85C248.96 284.85 262.58 287.61 258.6 290.63V290.65Z" fill="#163C94"></path> <path fill-rule="evenodd" clip-rule="evenodd" d="M297.07 290.08C297.07 290.08 306.25 293.64 306.25 297.94C306.25 302.24 299.57 305.21 293.56 305.21C273.28 305.21 284.99 277.3 310.26 277.3C323.79 277.3 326.36 283.22 326.36 286.41C326.36 289.6 317.44 306.34 317.44 312.55C317.44 318.76 320.61 320.68 325.44 320.68C330.27 320.68 335.63 319.86 335.63 310.45C337.58 300.45 330.58 276.45 349.07 277.11C356.58 277.11 356.75 279.48 356.75 282.11C356.75 284.74 350.75 285.4 348.75 288.23C346.75 291.06 353.56 326.62 353.02 331.23C351.86 341.37 345.64 368.85 315.92 368.03C317.27 368.03 296.18 367.82 293.23 353.39C293.23 338.96 309.42 341.23 311.76 341.23C314.1 341.23 320.48 342.72 320.48 346.92C321.91 353.05 312.93 355.36 311.09 355.32C311.09 355.65 312.92 359.52 316.27 360.04C337.05 363.24 341.47 335.79 342.33 329.87C342.33 329.87 328.84 336.62 321.44 334.41C318.11 334.41 309.92 330.48 309.92 326.1V320.16L302.08 320.71C303.794 314.463 306.056 308.379 308.84 302.53C313.1 293.9 317.11 284.59 308.09 284.59C299.07 284.59 297.09 290.02 297.09 290.02L297.07 290.08Z" fill="#163C94"></path> <path fill-rule="evenodd" clip-rule="evenodd" d="M287.999 437.07H287.579H287.159H286.749H286.349H285.959H285.569H285.179L284.789 437.02L284.419 436.97H284.059L283.429 436.87L282.859 436.79L282.339 436.71L281.859 436.64L281.419 436.57L281.009 436.52H280.649H280.309H280.009H279.749H279.509H279.299H277.909H277.679H277.419H277.139H276.809H276.449L276.059 436.57L275.629 436.63L275.159 436.69L274.639 436.76L274.089 436.84L273.489 436.93L272.819 437.02H272.489L272.129 437.07H271.769H271.389H271.019H270.639H270.259H269.869H269.459H269.059H268.639H268.219H267.789H267.349H266.909H266.439H265.999H265.519H265.039H264.549H263.549H263.029H257.879L238.399 437.29L238.689 430.78L238.849 429.71L239.129 428.64L239.569 427.58L240.189 426.53L240.979 425.53L241.979 424.64L243.069 423.88L244.229 423.27L245.409 422.8L246.559 422.46L247.649 422.23L248.649 422.07L249.649 421.96L250.579 421.9H251.469H253.929H254.689H255.409H257.999H258.549H259.049L259.509 421.85H259.669V387.33V387.12V386.93H259.619H259.249H259.159L258.479 387.37L257.639 387.95L256.639 388.66L255.639 389.46L254.519 390.33L253.349 391.26L252.119 392.26L250.859 393.26L249.549 394.26L248.219 395.26L246.869 396.26L245.489 397.26L244.089 398.19L242.649 399.07L241.159 399.9L239.599 400.66L237.909 401.33L236.019 401.88L233.839 402.24H231.329L228.649 401.67L226.249 400.48L224.439 398.89L223.239 397.16L222.469 395.37L221.999 393.52L221.739 391.52L221.649 389.33V388.84L221.719 388.4L221.799 388.04L221.889 387.72L221.989 387.42L222.089 387.15L222.189 386.88L222.309 386.62L222.419 386.36L222.529 386.11L222.649 385.87L222.769 385.62L222.899 385.37L223.039 385.11L223.169 384.86L223.299 384.63L223.389 384.46L223.449 384.35L223.119 384.15L222.709 383.93L222.249 383.7L221.709 383.45L207.989 377.45L222.509 373.35L222.949 373.22L223.369 373.1L223.779 372.99L224.189 372.87L224.599 372.76L225.009 372.65L225.429 372.54L225.859 372.44L226.299 372.34L226.759 372.25L227.229 372.16L227.719 372.08L228.239 372.01L228.779 371.96H229.329H229.889H230.459H231.029H231.589L232.139 372.01L232.689 372.08L233.229 372.17L233.749 372.27L234.259 372.38L234.759 372.5L235.259 372.63L235.749 372.76L236.239 372.91L236.739 373.06L237.249 373.22L237.619 373.34L238.439 373.58L239.139 373.74L239.879 373.86L240.669 373.94H241.519H242.419H243.419L244.419 373.87L245.499 373.77L246.629 373.63L247.819 373.46L249.049 373.26L250.329 373.04L251.649 372.8L253.009 372.54L254.409 372.28L255.859 372.01L257.339 371.75L258.859 371.49L260.409 371.25L262.009 371.03L263.639 370.84L265.309 370.68L267.019 370.57L268.769 370.51H270.539L272.359 370.58L274.199 370.73L276.059 370.96L277.949 371.29L279.209 371.57L280.419 371.3L282.279 370.97L284.129 370.74L285.949 370.59L287.739 370.52H289.499L291.219 370.59L292.899 370.7L294.549 370.86L295.999 371L297.559 371.23L299.089 371.47L300.579 371.73L302.039 371.99L303.449 372.26L304.819 372.53L306.159 372.78L307.449 373.02L308.689 373.24L309.889 373.44L311.039 373.6L312.129 373.74L313.129 373.84L314.129 373.9H315.059H315.999L316.799 373.85L317.539 373.76L318.239 373.65L318.899 373.49L319.709 373.24L320.569 372.95L321.569 372.64L322.569 372.36L323.569 372.13L324.649 371.94L325.769 371.81H326.919H328.059L329.139 371.91L330.139 372.07L331.069 372.27L331.939 372.48L332.759 372.7L333.559 372.94L334.369 373.18L348.849 377.51L335.459 383.39L334.929 383.64L334.459 383.88L334.059 384.1L333.719 384.3L333.819 384.48L334.109 384.96L334.409 385.49L334.689 386.03L334.939 386.57L335.159 387.14L335.359 387.76L335.509 388.47L335.569 389.22L335.479 391.37L335.209 393.28L334.699 395.09L333.859 396.86L332.549 398.56L330.619 400.08L328.169 401.14L325.569 401.6H323.169L321.069 401.25L319.219 400.72L317.549 400.07L315.989 399.34L314.499 398.54L313.049 397.69L311.629 396.79L310.229 395.86L308.859 394.86L307.519 393.86L306.209 392.86L304.939 391.86L303.709 390.93L302.529 390.03L301.409 389.19L300.409 388.42L299.469 387.74L298.639 387.17L297.999 386.76H297.939H297.589V387V387.14V387.29V422.06H298.049H298.569H299.139H301.139H301.879H302.649H303.439H304.269H305.129H306.939H307.939L308.939 422.14L309.989 422.26L311.099 422.46L312.269 422.75L313.479 423.16L314.689 423.71L315.869 424.42L316.939 425.29L317.849 426.29L318.569 427.36L319.079 428.47L319.419 429.59L319.599 430.71L319.909 437.11L299.379 437.31H293.599H293.099H292.099H291.639H291.189H290.749H290.299H289.849H289.409H288.969H288.539H288.119L287.999 437.07ZM228.329 389.35C228.381 389.001 228.489 388.664 228.649 388.35C228.859 387.87 229.129 387.35 229.439 386.78C229.743 386.25 230.007 385.699 230.229 385.13C230.399 384.753 230.508 384.351 230.549 383.94C230.549 382.09 228.439 380.28 224.219 378.48C229.309 377.05 229.989 376.65 234.969 378.29C247.589 382.45 263.289 372.29 279.059 377.22C294.529 372.33 309.929 382.52 322.239 378.22C327.089 376.54 327.979 377.01 332.829 378.45C328.609 380.25 326.509 382.06 326.509 383.91C326.627 384.947 327.006 385.938 327.609 386.79C328.173 387.549 328.552 388.429 328.719 389.36C328.719 408.72 304.469 381.53 299.319 381.53C295.419 381.53 292.993 382.13 292.039 383.33C291.068 384.621 290.567 386.205 290.619 387.82V422.62C290.555 423.522 290.803 424.419 291.322 425.161C291.841 425.902 292.599 426.442 293.469 426.69C300.939 429.31 312.679 424.18 312.679 431.86L299.159 431.99C295.889 431.99 293.159 431.99 290.939 431.87C289.059 431.825 287.182 431.671 285.319 431.41C278.579 430.41 278.709 430.41 271.649 431.41C267.026 431.852 262.383 432.045 257.739 431.99L245.419 432.12C245.419 424.42 255.949 429.27 263.509 426.69C264.387 426.445 265.154 425.908 265.685 425.168C266.216 424.428 266.479 423.529 266.429 422.62V387.82C266.496 386.967 266.39 386.11 266.119 385.299C265.847 384.488 265.415 383.74 264.849 383.1C263.803 382.053 261.433 381.53 257.739 381.53C251.969 381.53 228.329 410.01 228.329 389.36V389.35Z" fill="#163C94"></path> <path fill-rule="evenodd" clip-rule="evenodd" d="M187.34 221.79L373.91 221.88L373.78 258.06L187.46 257.96L187.34 221.79Z" fill="#ED1C24"></path> <path fill-rule="evenodd" clip-rule="evenodd" d="M345.579 229.12H347.649C346.589 230.45 345.649 234.35 345.189 238.36C353.649 237.93 361.749 237.73 364.769 244.36C365.218 245.385 365.314 246.53 365.043 247.616C364.771 248.702 364.148 249.667 363.269 250.36C361.469 251.65 358.929 252.3 355.629 252.3C352.365 252.275 349.135 251.634 346.109 250.41C344.69 251.064 343.16 251.441 341.599 251.52C339.57 251.593 337.557 251.123 335.769 250.16C334.342 249.185 333.349 247.693 332.999 246C332.791 244.797 332.988 243.559 333.559 242.48C336.661 244.222 339.867 245.772 343.159 247.12C342.459 245.35 342.679 242.04 343.039 239.7C339.719 239.7 336.549 239.86 333.919 239.95C327.859 244.21 321.219 248.56 318.709 249.05C323.019 248.81 328.129 246.86 331.789 249.54C331.453 250.207 331.079 250.855 330.669 251.48C329.969 248.48 320.869 250.21 318.389 250.48L313.289 251.09L314.559 249.56C316.879 246.12 317.099 241.69 318.109 238.24C318.469 237.74 309.599 246.03 306.659 250.79H304.659C305.379 248.63 305.559 243.57 304.509 241.12C303.509 242.36 302.279 243.81 301.149 245.01C298.405 248.134 294.6 250.129 290.469 250.61C288.055 251.057 285.561 250.735 283.339 249.69C276.879 251.69 267.429 251.97 260.269 249.09C259.49 248.775 258.746 248.379 258.049 247.91C250.369 253.75 232.449 251.1 225.909 247.55C224.661 248.252 223.365 248.863 222.029 249.38C218.566 250.494 214.946 251.041 211.309 251C206.643 251 202.883 250.083 200.029 248.25C197.176 246.417 195.589 244.123 195.269 241.37C195.123 240.298 195.259 239.206 195.664 238.203C196.069 237.2 196.729 236.32 197.579 235.65C200.139 233.73 203.169 233.23 206.799 233.79C208.952 234.164 211.043 234.837 213.009 235.79C214.431 235.226 215.949 234.944 217.479 234.96C219.273 234.884 221.039 235.428 222.479 236.5C223.116 236.967 223.644 237.566 224.027 238.257C224.411 238.947 224.64 239.713 224.699 240.5C224.691 242.294 224.09 244.034 222.989 245.45C219.58 242.298 215.771 239.608 211.659 237.45C208.609 239.68 208.449 242.69 209.799 245.65C209.149 245.364 208.58 244.922 208.143 244.361C207.707 243.801 207.417 243.141 207.299 242.44C207.119 240.44 208.439 238.75 210.789 236.97C209.649 236.33 208.454 235.791 207.219 235.36C205.898 234.964 204.504 234.876 203.144 235.101C201.783 235.326 200.492 235.86 199.369 236.66C194.609 240.17 198.999 247.4 206.089 248.71C208.389 249.14 210.789 249.78 213.239 249.51C217.363 249.192 221.356 247.914 224.899 245.78C224.857 245.535 224.83 245.288 224.819 245.04C224.749 243.24 226.819 242.04 229.449 241.63C231.735 238.427 233.429 234.84 234.449 231.04L220.509 231.11H218.969L217.169 231.17C216.638 231.18 216.116 231.306 215.639 231.54C215.246 231.799 214.936 232.168 214.749 232.6L214.669 232.8L213.839 232.67L214.009 232.32C214.269 231.77 214.489 231.32 214.689 230.83L215.289 229.44L215.429 229.13H238.309L238.089 229.91C237.065 234.027 235.329 237.932 232.959 241.45C233.662 241.489 234.36 241.579 235.049 241.72C237.408 242.157 239.712 242.852 241.919 243.79C243.27 243.666 244.594 243.328 245.839 242.79C246.083 243.006 246.31 243.24 246.519 243.49C244.987 244.317 243.4 245.039 241.769 245.65C238.897 243.6 235.398 242.62 231.879 242.88C231.209 243.68 230.481 244.429 229.699 245.12C228.928 245.796 228.113 246.421 227.259 246.99C239.799 251.83 250.039 250.72 256.029 246.32C254.727 245.114 253.853 243.517 253.539 241.77C253.539 241.44 253.479 241.11 253.459 240.77C248.459 239.91 240.729 240.09 238.119 240.2L241.529 237.01C245.739 237.18 248.529 237.74 252.789 236.67C253.489 236.5 254.119 236.33 254.719 236.16L254.839 236.02C256.467 234.295 258.44 232.933 260.629 232.02C257.489 230.24 244.259 230.49 241.119 234.02L240.229 232.18C240.229 232.18 241.759 230.91 245.599 230.08C248.357 229.406 251.192 229.103 254.029 229.18C256.259 229.237 258.472 229.59 260.609 230.23C261.203 230.47 261.704 230.894 262.039 231.44C269.969 228.23 280.799 227.96 288.389 231.91L287.129 234.41C289.637 235.113 291.796 236.72 293.189 238.92C296.639 239.26 297.959 240.92 299.189 241.92C299.359 242.04 298.749 242.57 298.449 242.83C298.509 242.83 295.689 240.38 293.389 240.36C293.159 242.72 291.199 244.97 289.179 246.86C288.237 247.688 287.171 248.363 286.019 248.86C289.028 249.533 292.179 249.052 294.849 247.51C298.609 245.4 301.069 242.79 303.799 239.12C297.329 232.05 309.309 225.49 310.519 231.32C311.089 234.07 307.889 236.62 306.209 238.88C307.359 240.6 307.549 243.24 307.599 245.14C312.003 240.235 316.821 235.719 321.999 231.64C324.532 230.092 327.462 229.316 330.429 229.41C332.428 229.526 334.431 229.526 336.429 229.41L338.269 228.56C338.269 228.56 339.139 228.67 339.119 228.63C339.099 228.59 336.059 230.63 335.759 230.93C335.619 230.93 331.329 230.93 329.759 231.02C327.603 231.145 325.511 231.801 323.669 232.93C319.839 235.83 319.589 241.05 318.669 244.4C318.299 245.986 317.642 247.491 316.729 248.84C319.239 247.67 321.149 245.91 323.659 244.19C325.659 242.81 327.659 241.45 329.659 240.11C324.819 239.34 326.219 236.44 328.089 235.59C329.128 235.209 330.223 235 331.329 234.97C331.389 234.97 325.439 237.22 332.099 238.29H332.329C336.769 235.29 341.169 232.29 345.569 229.14L345.579 229.12ZM266.579 235.6C265.814 235.075 265.095 234.486 264.429 233.84C264.259 233.69 263.209 234.72 263.009 234.74C263.696 235.375 264.439 235.948 265.229 236.45L265.289 236.4C264.489 236.95 263.689 237.55 262.899 238.21C262.899 238.21 262.309 241.01 262.529 240.42C263.724 239.233 265.068 238.208 266.529 237.37V237.37C271.399 239.92 279.419 242.75 286.149 235.62C285.499 235.47 289.059 236.36 290.699 238.69C282.699 239.35 279.639 244.69 281.619 247.93C279.523 248.524 277.372 248.906 275.199 249.07C268.199 249.57 262.929 248.53 259.609 245.89C260.016 244.995 260.155 244.002 260.009 243.03C259.799 241.46 258.619 240.3 256.009 239.61C255.994 238.635 256.254 237.675 256.759 236.84C259.659 235.97 261.939 234.68 262.339 232.84C262.349 232.75 262.349 232.66 262.339 232.57C269.259 229.68 279.489 229.2 286.479 232.28L285.779 233.73C280.779 232.25 275.179 230.73 266.519 235.58L266.579 235.6ZM267.979 236.51C272.649 238.63 278.669 240.92 285.169 235.05C282.395 233.923 279.393 233.468 276.409 233.722C273.425 233.975 270.544 234.931 267.999 236.51H267.979ZM344.979 239.71C344.649 243.05 344.639 246.27 345.109 247.93L347.339 248.93C350.339 246.85 350.099 244.02 348.339 241.26C348.999 241.46 349.599 241.82 350.087 242.306C350.575 242.792 350.937 243.391 351.139 244.05C351.589 245.94 350.669 247.71 348.379 249.39C351.579 250.77 353.239 251.32 355.819 251.24C363.459 251.02 365.389 244.16 358.559 241.24C355.899 240.1 350.559 239.79 345.029 239.78L344.979 239.71ZM343.199 238.4C343.579 236.188 344.152 234.013 344.909 231.9C343.499 232.9 339.909 235.64 335.779 238.59C338.199 238.68 340.649 238.52 343.199 238.4ZM240.999 238.92C242.899 238.8 244.329 239.02 245.899 238.92C248.407 238.802 250.92 238.866 253.419 239.11C253.47 238.567 253.591 238.032 253.779 237.52C250.434 238.143 247.028 238.371 243.629 238.2C243.549 238.2 241.629 238.35 241.709 238.06C241.709 238.06 241.889 238.14 240.999 238.88V238.92ZM290.839 240C290.394 239.909 289.935 239.909 289.489 240C286.399 240.4 280.839 243.91 283.419 247.17C287.479 245.67 290.489 243.17 290.839 240ZM222.999 242.27C224.689 238.15 220.219 234.34 214.079 236.2C217.332 237.779 220.337 239.824 222.999 242.27V242.27ZM257.869 244.07C257.991 243.671 258.008 243.248 257.919 242.84C257.799 242.29 257.259 241.84 256.419 241.49C256.768 242.419 257.257 243.289 257.869 244.07ZM258.709 234.72C259.618 234.433 260.435 233.912 261.079 233.21C260.24 233.631 259.446 234.137 258.709 234.72V234.72ZM305.359 237.59C298.989 233.1 309.879 225.91 309.209 232.52C309.129 233.34 306.029 236.22 305.359 237.59ZM334.269 244.45C334.015 244.964 333.934 245.546 334.039 246.11C334.949 249.8 340.509 251.67 344.869 250.02C341.123 248.6 337.564 246.729 334.269 244.45V244.45Z" fill="#FFF200"></path> </g> <path d="M58.5708 614.688V625.76C56.7361 626.741 55.1361 627.445 53.7708 627.872C51.4668 628.597 48.9921 628.96 46.3468 628.96C40.0748 628.96 35.0188 627.019 31.1788 623.136C26.9121 618.784 24.7788 613.28 24.7788 606.624C24.7788 599.925 26.7628 594.528 30.7308 590.432C34.5708 586.421 39.6694 584.416 46.0268 584.416C50.1654 584.416 54.3468 585.461 58.5708 587.552V599.136C57.4188 597.856 55.9894 596.725 54.2828 595.744C52.2774 594.677 50.0161 594.144 47.4988 594.144C44.3414 594.144 41.8454 594.891 40.0108 596.384C38.3041 597.792 37.2161 599.648 36.7468 601.952H52.6188V610.528H36.4268C36.9388 613.088 38.1121 615.157 39.9468 616.736C41.8668 618.315 44.3841 619.104 47.4988 619.104C50.1014 619.104 52.3628 618.635 54.2828 617.696C55.9041 616.928 57.3334 615.925 58.5708 614.688ZM84.0533 628H66.2613V585.312H82.7733C86.9973 585.312 90.1119 586.421 92.1173 588.64C93.8666 590.56 94.7413 593.227 94.7413 596.64C94.7413 598.517 94.3359 600.267 93.5253 601.888C92.6719 603.467 91.5199 604.576 90.0693 605.216C92.4586 605.472 94.3999 606.325 95.8933 607.776C97.8133 609.611 98.7733 612.213 98.7733 615.584C98.7733 619.083 97.7279 621.877 95.6373 623.968C93.0346 626.656 89.1733 628 84.0533 628ZM77.3333 593.824V602.144H79.3813C81.3439 602.144 82.7519 601.696 83.6053 600.8C84.2879 600.117 84.6293 599.179 84.6293 597.984C84.6293 596.832 84.2879 595.872 83.6053 595.104C82.7519 594.251 81.3439 593.824 79.3813 593.824H77.3333ZM77.3333 610.4V619.36H79.8293C83.4133 619.36 85.6959 618.784 86.6773 617.632C87.2746 616.949 87.5733 616.032 87.5733 614.88C87.5733 613.557 87.2106 612.533 86.4853 611.808C85.5466 610.869 83.2639 610.4 79.6373 610.4H77.3333ZM123.872 613.856H116.896V628H105.824V585.312H123.488C128.053 585.312 131.658 586.592 134.304 589.152C136.949 591.712 138.272 595.168 138.272 599.52C138.272 604.128 137.013 607.669 134.496 610.144C131.978 612.619 128.437 613.856 123.872 613.856ZM116.896 594.272V604.896H120.608C122.741 604.896 124.298 604.448 125.28 603.552C126.218 602.741 126.688 601.44 126.688 599.648C126.688 597.941 126.261 596.661 125.408 595.808C124.426 594.784 122.848 594.272 120.672 594.272H116.896ZM189.32 606.688C189.32 613.003 187.08 618.315 182.6 622.624C178.163 626.848 172.552 628.96 165.768 628.96C158.984 628.96 153.374 626.848 148.936 622.624C144.456 618.315 142.216 613.003 142.216 606.688C142.216 603.744 142.771 600.864 143.88 598.048C145.032 595.232 146.718 592.779 148.936 590.688C153.374 586.464 158.984 584.352 165.768 584.352C172.552 584.352 178.163 586.464 182.6 590.688C184.819 592.779 186.483 595.232 187.592 598.048C188.744 600.864 189.32 603.744 189.32 606.688ZM165.768 595.104C162.27 595.104 159.39 596.235 157.128 598.496C154.867 600.715 153.736 603.509 153.736 606.88C153.736 609.995 154.867 612.64 157.128 614.816C159.475 617.077 162.355 618.208 165.768 618.208C169.267 618.208 172.126 617.099 174.344 614.88C176.648 612.576 177.8 609.845 177.8 606.688C177.8 603.445 176.648 600.715 174.344 598.496C171.955 596.235 169.096 595.104 165.768 595.104ZM233.89 628H222.754V594.784H207.458V628H196.386V585.312H233.89V628ZM267.08 585.312V594.72H253.896V601.824H266.376V611.232H253.896V618.592H267.08V628H242.824V585.312H267.08ZM274.136 585.312H285.272V612.192L301.272 585.312H312.6V628H301.464V601.12L285.464 628H274.136V585.312ZM299.032 570.72L306.456 573.536C305.432 576.352 303.683 578.421 301.208 579.744C299.203 580.853 296.472 581.408 293.016 581.408C289.688 581.408 287 580.853 284.952 579.744C282.478 578.421 280.728 576.352 279.704 573.536L287.128 570.72C287.555 572.043 288.238 573.045 289.176 573.728C290.115 574.411 291.416 574.752 293.08 574.752C294.702 574.752 296.003 574.411 296.984 573.728C297.923 573.045 298.606 572.043 299.032 570.72ZM352.23 613.728V626.848C348.347 628.256 345.147 628.96 342.63 628.96C335.974 628.96 330.47 626.827 326.118 622.56C324.07 620.512 322.47 618.123 321.318 615.392C320.208 612.619 319.654 609.824 319.654 607.008C319.654 604.064 320.23 601.205 321.382 598.432C322.576 595.659 324.155 593.269 326.118 591.264C330.47 586.827 335.846 584.608 342.246 584.608C345.36 584.608 348.688 585.333 352.23 586.784V600.032C349.712 596.917 346.491 595.36 342.566 595.36C339.536 595.36 336.976 596.299 334.886 598.176C332.411 600.48 331.174 603.403 331.174 606.944C331.174 610.315 332.326 613.088 334.63 615.264C336.72 617.227 339.366 618.208 342.566 618.208C346.278 618.208 349.499 616.715 352.23 613.728ZM359.261 628V585.312H370.397V601.952H375.773C381.576 601.952 385.821 603.275 388.509 605.92C390.771 608.181 391.901 611.189 391.901 614.944C391.901 618.741 390.813 621.728 388.637 623.904C385.907 626.635 381.405 628 375.133 628H359.261ZM370.397 619.424H374.685C377.032 619.424 378.632 618.997 379.485 618.144C380.253 617.376 380.637 616.309 380.637 614.944C380.637 613.579 380.232 612.533 379.421 611.808C378.525 610.955 376.947 610.528 374.685 610.528H370.397V619.424ZM410.021 585.312V602.912L423.589 585.312H437.285L420.325 605.536L438.821 628H424.485L410.021 609.504V628H398.949V585.312H410.021ZM443.386 585.312H454.522V612.192L470.522 585.312H481.85V628H470.714V601.12L454.714 628H443.386V585.312ZM490.824 585.312H501.96V612.192L517.96 585.312H529.288V628H518.152V601.12L502.152 628H490.824V585.312ZM515.72 570.72L523.144 573.536C522.12 576.352 520.37 578.421 517.896 579.744C515.89 580.853 513.16 581.408 509.704 581.408C506.376 581.408 503.688 580.853 501.64 579.744C499.165 578.421 497.416 576.352 496.392 573.536L503.816 570.72C504.242 572.043 504.925 573.045 505.864 573.728C506.802 574.411 508.104 574.752 509.768 574.752C511.389 574.752 512.69 574.411 513.672 573.728C514.61 573.045 515.293 572.043 515.72 570.72ZM80.2812 667.312H92.6973L100.825 686.32L107.929 667.312H119.769L100.569 710H88.8573L94.8093 698.032L80.2812 667.312ZM135.708 667.312V683.248H151.708V667.312H162.844V710H151.708V692.72H135.708V710H124.636V667.312H135.708ZM171.824 667.312H182.896V710H171.824V667.312ZM209.678 710H191.886V667.312H208.398C212.622 667.312 215.737 668.421 217.742 670.64C219.492 672.56 220.366 675.227 220.366 678.64C220.366 680.517 219.961 682.267 219.15 683.888C218.297 685.467 217.145 686.576 215.694 687.216C218.084 687.472 220.025 688.325 221.518 689.776C223.438 691.611 224.398 694.213 224.398 697.584C224.398 701.083 223.353 703.877 221.262 705.968C218.66 708.656 214.798 710 209.678 710ZM202.958 675.824V684.144H205.006C206.969 684.144 208.377 683.696 209.23 682.8C209.913 682.117 210.254 681.179 210.254 679.984C210.254 678.832 209.913 677.872 209.23 677.104C208.377 676.251 206.969 675.824 205.006 675.824H202.958ZM202.958 692.4V701.36H205.454C209.038 701.36 211.321 700.784 212.302 699.632C212.9 698.949 213.198 698.032 213.198 696.88C213.198 695.557 212.836 694.533 212.11 693.808C211.172 692.869 208.889 692.4 205.262 692.4H202.958ZM255.705 667.312V676.72H242.521V683.824H255.001V693.232H242.521V700.592H255.705V710H231.449V667.312H255.705ZM280.809 695.856H273.833V710H262.761V667.312H280.425C284.991 667.312 288.596 668.592 291.241 671.152C293.887 673.712 295.209 677.168 295.209 681.52C295.209 686.128 293.951 689.669 291.433 692.144C288.916 694.619 285.375 695.856 280.809 695.856ZM273.833 676.272V686.896H277.545C279.679 686.896 281.236 686.448 282.217 685.552C283.156 684.741 283.625 683.44 283.625 681.648C283.625 679.941 283.199 678.661 282.345 677.808C281.364 676.784 279.785 676.272 277.609 676.272H273.833ZM331.73 695.728V708.848C327.847 710.256 324.647 710.96 322.13 710.96C315.474 710.96 309.97 708.827 305.618 704.56C303.57 702.512 301.97 700.123 300.818 697.392C299.708 694.619 299.154 691.824 299.154 689.008C299.154 686.064 299.73 683.205 300.882 680.432C302.076 677.659 303.655 675.269 305.618 673.264C309.97 668.827 315.346 666.608 321.746 666.608C324.86 666.608 328.188 667.333 331.73 668.784V682.032C329.212 678.917 325.991 677.36 322.066 677.36C319.036 677.36 316.476 678.299 314.386 680.176C311.911 682.48 310.674 685.403 310.674 688.944C310.674 692.315 311.826 695.088 314.13 697.264C316.22 699.227 318.866 700.208 322.066 700.208C325.778 700.208 328.999 698.715 331.73 695.728ZM338.761 667.312H349.897V694.192L365.897 667.312H377.225V710H366.089V683.12L350.089 710H338.761V667.312ZM411.415 676.72H402.327V710H391.255V676.72H382.167V667.312H411.415V676.72ZM440.58 667.312V676.72H427.396V683.824H439.876V693.232H427.396V700.592H440.58V710H416.324V667.312H440.58ZM475.29 676.72H466.202V710H455.13V676.72H446.042V667.312H475.29V676.72Z" fill="#163C94"></path> <defs> <clipPath id="clip0"> <rect x="33" y="8" width="492.63" height="542.57" fill="white"></rect> </clipPath> </defs> </svg> 